<svg xmlns="http://www.w3.org/2000/svg" xmlns:xlink="http://www.w3.org/1999/xlink" width="82.759" height="82.76" viewBox="0 0 82.759 82.76">
  <defs>
    <clipPath id="clip-path">
      <rect width="82.759" height="82.76" fill="none"/>
    </clipPath>
  </defs>
  <g id="Repeat_Grid_1" data-name="Repeat Grid 1" clip-path="url(#clip-path)">
    <g transform="translate(-666.228 -1951.726)">
      <path id="Path_9" data-name="Path 9" d="M745.591,1970.079a6.8,6.8,0,0,0-9.28,2.484L730.284,1983v-8.641a1.617,1.617,0,0,0-3.235,0v14.238l-17.766,30.749a1.6,1.6,0,0,0-.207.636l-1.216,11.274h-38.4v-76.294h57.586v4.849a1.617,1.617,0,0,0,3.235,0v-6.466a1.617,1.617,0,0,0-1.617-1.616H667.845a1.616,1.616,0,0,0-1.617,1.616v79.527a1.616,1.616,0,0,0,1.617,1.617h60.822a1.617,1.617,0,0,0,1.617-1.617v-22.718l17.795-30.8a6.794,6.794,0,0,0-2.488-9.273Zm-33.565,52.714,4.664,2.689-5.377,3.925Zm15.023,8.46H714.27l6.335-4.625a1.629,1.629,0,0,0,.446-.5l6-10.38Zm-7.991-8.137-6.165-3.556,23.677-40.978,6.163,3.557Zm26.218-45.381-.925,1.6-6.163-3.556.925-1.6a3.558,3.558,0,0,1,6.163,3.556Z" fill="#1999a9"/>
      <path id="Path_10" data-name="Path 10" d="M728.667,1965.465a1.618,1.618,0,1,0,1.143.474A1.627,1.627,0,0,0,728.667,1965.465Z" fill="#1999a9"/>
      <path id="Path_11" data-name="Path 11" d="M714.594,1968.86H681.918a1.617,1.617,0,1,0,0,3.233h32.676a1.617,1.617,0,1,0,0-3.233Z" fill="#1999a9"/>
      <path id="Path_12" data-name="Path 12" d="M714.594,1977.912H681.918a1.616,1.616,0,1,0,0,3.232h32.676a1.616,1.616,0,1,0,0-3.232Z" fill="#1999a9"/>
      <path id="Path_13" data-name="Path 13" d="M714.594,1986.964H702.583a1.616,1.616,0,1,0,0,3.232h12.011a1.616,1.616,0,1,0,0-3.232Z" fill="#1999a9"/>
      <path id="Path_14" data-name="Path 14" d="M716.211,1997.632a1.618,1.618,0,0,0-1.617-1.617H681.918a1.617,1.617,0,1,0,0,3.233h32.676A1.617,1.617,0,0,0,716.211,1997.632Z" fill="#1999a9"/>
      <path id="Path_15" data-name="Path 15" d="M709.255,2006.684a1.617,1.617,0,0,0-1.617-1.617h-10.11a1.617,1.617,0,1,0,0,3.233h10.11A1.617,1.617,0,0,0,709.255,2006.684Z" fill="#1999a9"/>
      <path id="Path_16" data-name="Path 16" d="M681.918,2017.352h14.235a1.617,1.617,0,1,0,0-3.233H681.918a1.617,1.617,0,1,0,0,3.233Z" fill="#1999a9"/>
      <path id="Path_17" data-name="Path 17" d="M681.918,1990.2H692.7a1.616,1.616,0,1,0,0-3.232H681.918a1.616,1.616,0,1,0,0,3.232Z" fill="#1999a9"/>
      <path id="Path_18" data-name="Path 18" d="M681.918,2008.3h8.331a1.617,1.617,0,1,0,0-3.233h-8.331a1.617,1.617,0,1,0,0,3.233Z" fill="#1999a9"/>
    </g>
  </g>
</svg>
