<svg xmlns="http://www.w3.org/2000/svg" xmlns:xlink="http://www.w3.org/1999/xlink" width="82.76" height="82.76" viewBox="0 0 82.76 82.76">
  <defs>
    <clipPath id="clip-path">
      <rect width="82.76" height="82.76" fill="none"/>
    </clipPath>
  </defs>
  <g id="Repeat_Grid_2" data-name="Repeat Grid 2" clip-path="url(#clip-path)">
    <g transform="translate(-1663.684 -1952.45)">
      <path id="Path_25" data-name="Path 25" d="M1743.281,1952.854a1.38,1.38,0,0,0-1.873-.072l-9.393,8.052-10.4,2.311v-4.76a4.556,4.556,0,0,0-7.083-3.79l-3.338,2.225a1.381,1.381,0,0,0-.614,1.148v5.935a5.5,5.5,0,0,0,.331,1.88l-7.769,3.33-10.779,4.491a13.17,13.17,0,0,1-10.376-.122,15.94,15.94,0,0,0-14.329.724l-3.28,1.875a1.38,1.38,0,0,0-.513,1.882,1.4,1.4,0,0,0,.222.291l7.284,7.284a5.44,5.44,0,0,1,1.562,4.552,8.239,8.239,0,0,0,8.172,9.258,12.734,12.734,0,0,1,12.455,10.21l.495,2.474a1.38,1.38,0,0,0,2.328.705l8.68-8.68v.646l-6.859,28.808a1.377,1.377,0,0,0,1.342,1.7h4.138a1.379,1.379,0,0,0,1.284-.877l10.966-28.025,8.5,27.924a1.38,1.38,0,0,0,1.32.978h4.138a1.382,1.382,0,0,0,1.363-1.592l-6.845-43.808,5.23-15.691,7.765-3.883a1.372,1.372,0,0,0,.531-.469l8.276-12.414a1.378,1.378,0,0,0-.172-1.74Zm-31.548,19.547-.879.44-2.822-2.822,2.805-1.2Zm1.607-8.5v-2.759h5.517v2.759a2.759,2.759,0,0,1-5.517,0Zm12.414,1.148v3.1l-.967.483-2.164-2.886Zm-9.691-8.161a1.8,1.8,0,0,1,2.794,1.495h-5.036Zm-19.807,52.074a15.5,15.5,0,0,0-15.15-12.375,5.48,5.48,0,0,1-5.435-6.157,8.181,8.181,0,0,0-2.348-6.845l-6.007-6.007,1.712-.979a13.172,13.172,0,0,1,11.84-.6,15.945,15.945,0,0,0,12.558.147l6.584-2.743-5.749,8.623a1.382,1.382,0,0,0-.232.766v6.9a1.38,1.38,0,0,0,.943,1.309l11.106,3.7-.943,2.829a1.378,1.378,0,0,0-.071.436v2.188Zm8.07-23.806,1.554-2.071,1.036,3.625Zm3.217,5.148-.593,1.779-2.5-.834,1.078-2.156Zm19.233,42.146-9.358-30.747a1.379,1.379,0,0,0-2.6-.1l-12.071,30.848h-1.45l6.492-27.268a1.423,1.423,0,0,0,.038-.319v-6.673l2.373-7.12h11.619l6.465,41.38Zm9.068-64.52-7.948,3.975a1.376,1.376,0,0,0-.692.8l-5.2,15.609h-11.759l-2.473-8.655a1.379,1.379,0,0,0-2.429-.449l-4.138,5.518a1.379,1.379,0,0,0,.276,1.931,1.351,1.351,0,0,0,.118.079l1.557.934-1.349,2.7-5.016-1.672v-5.485l7.817-11.725.7-.3,4.3,4.305a1.378,1.378,0,0,0,1.592.258l2.759-1.379a1.379,1.379,0,0,0,.721-1.568l-.985-3.939a5.509,5.509,0,0,0,6.7-1.5l2.882,3.843a1.377,1.377,0,0,0,1.72.406l2.759-1.379a1.379,1.379,0,0,0,.762-1.234v-4.564l4.438-.986a1.38,1.38,0,0,0,.6-.3l3.487-2.989,2.392,2.393Zm5.144-7.716-1.853-1.852,3.1-2.656,1.055,1.056Z" fill="#1999a9"/>
      <rect id="Rectangle_18" data-name="Rectangle 18" width="3.778" height="2.759" transform="matrix(0.868, -0.496, 0.496, 0.868, 1665.758, 1969.184)" fill="#1999a9"/>
      <path id="Path_26" data-name="Path 26" d="M1682.247,1969.107a15.949,15.949,0,0,0,12.558.147l1.134-.473-1.061-2.546-1.134.472a13.174,13.174,0,0,1-10.376-.121,15.946,15.946,0,0,0-10.369-.878l.681,2.673A13.181,13.181,0,0,1,1682.247,1969.107Z" fill="#1999a9"/>
    </g>
  </g>
</svg>
