<svg xmlns="http://www.w3.org/2000/svg" xmlns:xlink="http://www.w3.org/1999/xlink" width="82.76" height="82.76" viewBox="0 0 82.76 82.76">
  <defs>
    <clipPath id="clip-path">
      <rect width="82.76" height="82.76" fill="none"/>
    </clipPath>
  </defs>
  <g id="Repeat_Grid_4" data-name="Repeat Grid 4" clip-path="url(#clip-path)">
    <g transform="translate(-1162.361 -1946)">
      <path id="Path_19" data-name="Path 19" d="M1222.752,1946c-12.354,0-22.369,9.429-22.369,21.061,0,8.829,5.77,16.387,13.952,19.518v9.305l4.008,4.968-4.008,4.969v5.449l4.008,4.969-4.008,4.968v7.553h9.352l7.482-7.044v-35.137c8.182-3.131,13.952-10.689,13.952-19.518C1245.121,1955.429,1235.106,1946,1222.752,1946Zm0,22.044a5.665,5.665,0,1,1,6.006-5.654A5.838,5.838,0,0,1,1222.752,1968.044Z" fill="#1999a9"/>
      <rect id="Rectangle_17" data-name="Rectangle 17" width="10.005" height="4.849" transform="translate(1184.195 1980.358)" fill="#1999a9"/>
      <path id="Path_20" data-name="Path 20" d="M1175.934,1980.359a7.045,7.045,0,0,0-6.541-4.2,6.633,6.633,0,1,0,0,13.241,7.044,7.044,0,0,0,6.541-4.2h3.479v-4.849Z" fill="#1999a9"/>
      <path id="Path_21" data-name="Path 21" d="M1200.043,1981.7q-.48-.658-.913-1.34h-.147v4.849h4.125A26.54,26.54,0,0,1,1200.043,1981.7Z" fill="#1999a9"/>
      <path id="Path_22" data-name="Path 22" d="M1195.251,1968.028h-5.795l-6.165-5.475h-7.357a7.044,7.044,0,0,0-6.541-4.2,6.633,6.633,0,1,0,0,13.241,7.045,7.045,0,0,0,6.541-4.2h5.312l6.165,5.475h8.517A24.541,24.541,0,0,1,1195.251,1968.028Z" fill="#1999a9"/>
      <path id="Path_23" data-name="Path 23" d="M1209.185,1997.517v-1.633h0v-3.193h-21.774l-6.165,5.474h-5.312a7.045,7.045,0,0,0-6.541-4.2,6.633,6.633,0,1,0,0,13.242,7.045,7.045,0,0,0,6.541-4.2h7.357l6.165-5.475H1209.2Z" fill="#1999a9"/>
      <path id="Path_24" data-name="Path 24" d="M1188.144,2005.022l-8.162,7.554a7.344,7.344,0,0,0-3.351-.8,6.633,6.633,0,1,0,7.032,6.621,6.252,6.252,0,0,0-.361-2.092l6.95-6.432h18.933v-4.85Z" fill="#1999a9"/>
    </g>
  </g>
</svg>
