<svg xmlns="http://www.w3.org/2000/svg" xmlns:xlink="http://www.w3.org/1999/xlink" width="82.779" height="82.779" viewBox="0 0 82.779 82.779">
  <defs>
    <clipPath id="clip-path">
      <rect width="82.779" height="82.779" fill="none"/>
    </clipPath>
  </defs>
  <g id="Repeat_Grid_1" data-name="Repeat Grid 1" clip-path="url(#clip-path)">
    <g transform="translate(-186.592 -1949.029)">
      <path id="Path_7" data-name="Path 7" d="M237.327,1958.375a31.932,31.932,0,0,0-22.6,9.351c-.034,0-.065-.005-.1-.005H194.6v-17.357a1.336,1.336,0,0,0-1.336-1.335h-5.34a1.335,1.335,0,0,0-1.335,1.335v80.109a1.335,1.335,0,0,0,1.335,1.335h5.34a1.336,1.336,0,0,0,1.336-1.335v-17.357H214.63c.032,0,.063,0,.1-.005a32.037,32.037,0,1,0,22.6-54.736Zm-45.395,70.763h-2.67V1951.7h2.67v77.439Zm2.671-18.692v-40.055h17.73a31.975,31.975,0,0,0,0,40.055Zm42.724,9.346a29.373,29.373,0,1,1,29.373-29.373A29.405,29.405,0,0,1,237.327,2019.792Z" fill="#1999a9"/>
      <path id="Path_8" data-name="Path 8" d="M253.972,1988.143a1.629,1.629,0,0,0-.133-2.33l-15.26-13.353a1.9,1.9,0,0,0-2.482.029l-15.311,14.036a1.618,1.618,0,0,0-.074,2.326l.384.4a1.674,1.674,0,0,0,2.3.176l1.144-1.025v15a1.665,1.665,0,0,0,1.666,1.666h5.968a1.665,1.665,0,0,0,1.666-1.666v-10.5h7.613v10.5a1.574,1.574,0,0,0,1.565,1.665h6.325a1.664,1.664,0,0,0,1.665-1.665v-14.791s.317.276.706.619,1.207.068,1.826-.613Z" fill="#1999a9"/>
    </g>
  </g>
</svg>
