<svg xmlns="http://www.w3.org/2000/svg" width="62.572" height="62.571" viewBox="0 0 62.572 62.571">
  <g id="Group_2" data-name="Group 2" transform="translate(-1385.589 -5199.793)">
    <path id="Path_5" data-name="Path 5" d="M1440.339,5199.793h-46.928a7.83,7.83,0,0,0-7.822,7.822v46.928a7.829,7.829,0,0,0,7.822,7.821h46.928a7.829,7.829,0,0,0,7.822-7.821v-46.928A7.83,7.83,0,0,0,1440.339,5199.793Z" fill="#09c4ce"/>
    <path id="Path_6" data-name="Path 6" d="M1438.384,5231.079h-9.777v-7.821c0-2.159,1.752-1.956,3.911-1.956h3.91v-9.777h-7.821a11.732,11.732,0,0,0-11.732,11.733v7.821h-7.821v9.777h7.821v21.508h11.732v-21.508h5.866Z" fill="#fafafa"/>
  </g>
</svg>
