<svg xmlns="http://www.w3.org/2000/svg" xmlns:xlink="http://www.w3.org/1999/xlink" width="62.571" height="62.571" viewBox="0 0 62.571 62.571">
  <defs>
    <clipPath id="clip-path">
      <rect width="62.571" height="62.571" fill="none"/>
    </clipPath>
  </defs>
  <g id="Repeat_Grid_3" data-name="Repeat Grid 3" clip-path="url(#clip-path)">
    <g transform="translate(-1490.718 -5199.806)">
      <path id="Path_4" data-name="Path 4" d="M1553.289,5207.213a22.949,22.949,0,0,1-7.391,2.493,15.546,15.546,0,0,0,5.643-8.726,22.983,22.983,0,0,1-8.134,3.822,11.882,11.882,0,0,0-9.37-5c-7.1,0-12.819,7.094-12.819,15.792a19.9,19.9,0,0,0,.3,3.6c-10.664-.64-20.1-6.931-26.44-16.514a18.77,18.77,0,0,0-1.756,7.98,17.025,17.025,0,0,0,5.7,13.121,10.916,10.916,0,0,1-5.8-1.945v.173c0,7.673,4.447,14.045,10.277,15.513a10.531,10.531,0,0,1-3.363.52,9.318,9.318,0,0,1-2.428-.269c1.662,6.252,6.378,10.848,11.986,11a22.906,22.906,0,0,1-15.905,6.733,19.659,19.659,0,0,1-3.07-.216,31.415,31.415,0,0,0,19.679,7.085c23.6,0,36.51-24.066,36.51-44.926,0-.7-.019-1.372-.047-2.041A29.6,29.6,0,0,0,1553.289,5207.213Z" fill="#09c4ce"/>
    </g>
  </g>
</svg>
