<svg xmlns="http://www.w3.org/2000/svg" xmlns:xlink="http://www.w3.org/1999/xlink" width="62.572" height="62.571" viewBox="0 0 62.572 62.571">
  <defs>
    <clipPath id="clip-path">
      <rect width="62.572" height="62.571" fill="none"/>
    </clipPath>
  </defs>
  <g id="Repeat_Grid_1" data-name="Repeat Grid 1" clip-path="url(#clip-path)">
    <g transform="translate(-1696.114 -5199)">
      <path id="Path_1" data-name="Path 1" d="M1754.173,5199h-53.546a4.513,4.513,0,0,0-4.513,4.513v53.545a4.513,4.513,0,0,0,4.513,4.513h53.546a4.513,4.513,0,0,0,4.513-4.513v-53.545A4.513,4.513,0,0,0,1754.173,5199Zm-35.864,47.295h-7.62v-22.923h7.62Zm-3.81-26.054h-.049a4.353,4.353,0,1,1,.049,0Zm31.284,26.054h-7.619v-12.263c0-3.082-1.1-5.184-3.86-5.184a4.171,4.171,0,0,0-3.909,2.786,5.23,5.23,0,0,0-.251,1.86v12.8h-7.618s.1-20.773,0-22.923h7.618v3.245a7.566,7.566,0,0,1,6.867-3.783c5.013,0,8.772,3.276,8.772,10.317Z" fill="#09c4ce"/>
    </g>
  </g>
</svg>
