<svg width="22" height="28" viewBox="0 0 27 22" fill="none" xmlns="http://www.w3.org/2000/svg">
<path d="M26 4.36112L23.7273 3.80171L24.8636 1.5641L22.0636 2.34727C21.3367 1.67955 20.4271 1.23601 19.447 1.0714C18.467 0.906776 17.4594 1.02828 16.5487 1.42091C15.638 1.81355 14.864 2.46012 14.3223 3.28084C13.7805 4.10156 13.4946 5.06051 13.5 6.03932V7.15813C9.47841 7.97486 5.96136 5.81556 2.70455 2.12351C2.13636 5.10699 2.70455 7.3446 4.40909 8.83634L1 8.27693C1.46023 10.5917 2.54773 12.4165 5.54545 12.7522L2.70455 13.871C3.84091 16.1086 5.62045 16.4554 8.38636 16.668C6.23514 18.1813 3.64321 18.9665 1 18.9056C15.4943 25.2481 23.7273 15.9251 23.7273 7.71753V6.23176L26 4.36112Z" stroke="#C4C4C4" stroke-width="2" stroke-linecap="round" stroke-linejoin="round"/>
</svg>
