<svg xmlns="http://www.w3.org/2000/svg" width="44.767" height="44.767" viewBox="0 0 44.767 44.767">
  <path id="Path_119" data-name="Path 119" d="M842.8,339.575a8.343,8.343,0,0,0,2.8,6.216v3.577a1.4,1.4,0,0,0,1.4,1.4h2.8a1.4,1.4,0,0,0,1.4-1.4v-1.4h22.383v1.4a1.4,1.4,0,0,0,1.4,1.4h2.8a1.4,1.4,0,0,0,1.4-1.4v-3.577a8.343,8.343,0,0,0,2.8-6.216v-4.2H842.8Zm40.57-11.191H846.994V312.055a1.859,1.859,0,0,1,3.172-1.311l1.685,1.684a6.687,6.687,0,0,0,.754,6.971l-.015.015a1.4,1.4,0,0,0,0,1.975l.989.989a1.4,1.4,0,0,0,1.978,0h0l9.212-9.213a1.4,1.4,0,0,0,0-1.979h0l-.988-.989a1.4,1.4,0,0,0-1.978,0l-.015.015a6.687,6.687,0,0,0-6.971-.753l-1.684-1.685a6.055,6.055,0,0,0-10.337,4.281v16.329h-1.4a1.4,1.4,0,0,0-1.4,1.4v1.4a1.4,1.4,0,0,0,1.4,1.4h41.969a1.4,1.4,0,0,0,1.4-1.4v-1.4A1.4,1.4,0,0,0,883.367,328.384Z" transform="translate(-839.999 -306)" fill="#ccc"/>
</svg>
