<svg xmlns="http://www.w3.org/2000/svg" width="51.071" height="30.643" viewBox="0 0 51.071 30.643">
  <path id="Path_118" data-name="Path 118" d="M667.974,334.321a6.384,6.384,0,1,0-6.384-6.384A6.391,6.391,0,0,0,667.974,334.321Zm28.089-10.214H678.188a1.276,1.276,0,0,0-1.277,1.277v11.491H659.036v-16.6A1.276,1.276,0,0,0,657.759,319h-2.553a1.276,1.276,0,0,0-1.277,1.277v28.089a1.277,1.277,0,0,0,1.277,1.277h2.553a1.277,1.277,0,0,0,1.277-1.277v-3.831h40.857v3.831a1.277,1.277,0,0,0,1.277,1.277h2.553A1.277,1.277,0,0,0,705,348.366V333.045A8.937,8.937,0,0,0,696.063,324.107Z" transform="translate(-653.929 -319)" fill="#ccc"/>
</svg>
