<svg xmlns="http://www.w3.org/2000/svg" width="25.84" height="29.532" viewBox="0 0 25.84 29.532">
  <path id="Path_109" data-name="Path 109" d="M1346.631,689.763a2.769,2.769,0,0,0,2.768,2.769h20.3a2.769,2.769,0,0,0,2.768-2.769V674.074h-25.84Zm18.457-11.3a.694.694,0,0,1,.692-.692h2.307a.694.694,0,0,1,.693.692v2.307a.694.694,0,0,1-.693.692h-2.307a.694.694,0,0,1-.692-.692Zm0,7.383a.694.694,0,0,1,.692-.692h2.307a.694.694,0,0,1,.693.692v2.307a.694.694,0,0,1-.693.692h-2.307a.694.694,0,0,1-.692-.692Zm-7.383-7.383a.694.694,0,0,1,.692-.692h2.308a.694.694,0,0,1,.692.692v2.307a.694.694,0,0,1-.692.692H1358.4a.694.694,0,0,1-.692-.692Zm0,7.383a.694.694,0,0,1,.692-.692h2.308a.694.694,0,0,1,.692.692v2.307a.694.694,0,0,1-.692.692H1358.4a.694.694,0,0,1-.692-.692Zm-7.383-7.383a.694.694,0,0,1,.692-.692h2.308a.694.694,0,0,1,.692.692v2.307a.694.694,0,0,1-.692.692h-2.308a.694.694,0,0,1-.692-.692Zm0,7.383a.694.694,0,0,1,.692-.692h2.308a.694.694,0,0,1,.692.692v2.307a.694.694,0,0,1-.692.692h-2.308a.694.694,0,0,1-.692-.692Zm19.381-19.15h-2.769v-2.768a.925.925,0,0,0-.923-.923h-1.846a.926.926,0,0,0-.923.923v2.768h-7.383v-2.768a.925.925,0,0,0-.922-.923h-1.846a.925.925,0,0,0-.923.923v2.768H1349.4a2.77,2.77,0,0,0-2.768,2.769v2.769h25.84V669.46A2.77,2.77,0,0,0,1369.7,666.691Z" transform="translate(-1346.631 -663)" fill="#ccc"/>
</svg>
