<svg xmlns="http://www.w3.org/2000/svg" width="35.851" height="35.851" viewBox="0 0 35.851 35.851">
  <path id="Path_111" data-name="Path 111" d="M1359.551,882.108a14.564,14.564,0,1,0-14.565-14.565A14.562,14.562,0,0,0,1359.551,882.108ZM1358,859.8v-1.177a1.16,1.16,0,0,1,1.163-1.162h.777a1.159,1.159,0,0,1,1.162,1.162v1.191a5.519,5.519,0,0,1,3.011,1.078.786.786,0,0,1,.084,1.2l-1.141,1.085a.789.789,0,0,1-.98.07,2.307,2.307,0,0,0-1.247-.357H1358.1a1.217,1.217,0,0,0-1.141,1.281,1.266,1.266,0,0,0,.847,1.233l4.363,1.309a4.387,4.387,0,0,1,3.06,4.208,4.318,4.318,0,0,1-4.139,4.37v1.176a1.159,1.159,0,0,1-1.162,1.162h-.777a1.16,1.16,0,0,1-1.163-1.162v-1.19a5.52,5.52,0,0,1-3.01-1.079.784.784,0,0,1-.085-1.2l1.142-1.085a.786.786,0,0,1,.98-.07,2.3,2.3,0,0,0,1.247.357h2.723a1.219,1.219,0,0,0,1.142-1.282,1.264,1.264,0,0,0-.848-1.232l-4.362-1.31a4.386,4.386,0,0,1-3.06-4.208A4.322,4.322,0,0,1,1358,859.8Zm17.24,17.827h-2.276a16.966,16.966,0,0,1-5.112,4.482h4.468a.625.625,0,0,1,.672.56v1.12a.625.625,0,0,1-.672.56h-25.537a.625.625,0,0,1-.672-.56v-1.12a.625.625,0,0,1,.672-.56h4.467a17.06,17.06,0,0,1-5.111-4.482h-2.269a2.239,2.239,0,0,0-2.241,2.241v6.722a2.239,2.239,0,0,0,2.241,2.241h31.37a2.238,2.238,0,0,0,2.24-2.241v-6.722A2.238,2.238,0,0,0,1375.236,877.626Z" transform="translate(-1341.625 -852.979)" fill="#ccc"/>
</svg>
