<svg xmlns="http://www.w3.org/2000/svg" width="30" height="34.286" viewBox="0 0 30 34.286">
  <path id="Path_113" data-name="Path 113" d="M1344.551,937.318a3.215,3.215,0,0,0,3.214,3.214h23.572a3.215,3.215,0,0,0,3.214-3.214V919.1h-30Zm4.286-12.858a1.074,1.074,0,0,1,1.071-1.071h6.429a1.074,1.074,0,0,1,1.071,1.071v6.429a1.074,1.074,0,0,1-1.071,1.071h-6.429a1.074,1.074,0,0,1-1.071-1.071Zm22.5-13.928h-3.215v-3.214a1.074,1.074,0,0,0-1.071-1.072h-2.143a1.074,1.074,0,0,0-1.071,1.072v3.214h-8.572v-3.214a1.075,1.075,0,0,0-1.071-1.072h-2.143a1.075,1.075,0,0,0-1.072,1.072v3.214h-3.214a3.215,3.215,0,0,0-3.214,3.214v3.214h30v-3.214A3.215,3.215,0,0,0,1371.337,910.532Z" transform="translate(-1344.551 -906.246)" fill="#ccc"/>
</svg>
