<svg xmlns="http://www.w3.org/2000/svg" width="30" height="29.999" viewBox="0 0 30 29.999">
  <g id="Group_112" data-name="Group 112" transform="translate(-1344.551 -763.107)">
    <path id="Path_114" data-name="Path 114" d="M1369.233,776.014a.878.878,0,0,0-.834-.6h-17.7a.878.878,0,0,0-.834.6l-5.274,15.937a.879.879,0,0,0,.835,1.155h28.242a.879.879,0,0,0,.834-1.155Zm.295,6.487h-9.1v-5.332h7.334Zm-18.19-5.332h7.334V782.5h-9.1Zm-2.346,7.09h9.68v7.09h-12.026Zm11.438,7.09v-7.09h9.679l2.346,7.09Z" fill="#ccc"/>
    <path id="Path_115" data-name="Path 115" d="M1363.945,771.017a.879.879,0,0,0,1.758,0,2.64,2.64,0,0,1,2.637-2.637.879.879,0,1,0,0-1.758,2.64,2.64,0,0,1-2.637-2.637.879.879,0,0,0-1.758,0,2.639,2.639,0,0,1-2.636,2.637.879.879,0,0,0,0,1.758A2.639,2.639,0,0,1,1363.945,771.017Zm.879-4.4a.882.882,0,1,1,0,1.764.882.882,0,0,1,0-1.764Z" fill="#ccc"/>
    <path id="Path_116" data-name="Path 116" d="M1350.762,770.138a2.64,2.64,0,0,1,2.637,2.636.878.878,0,1,0,1.757,0,2.64,2.64,0,0,1,2.637-2.636.879.879,0,1,0,0-1.758,2.64,2.64,0,0,1-2.637-2.637.878.878,0,1,0-1.757,0,2.64,2.64,0,0,1-2.637,2.637.879.879,0,0,0,0,1.758Zm3.515-1.761a.882.882,0,1,1,0,1.763.882.882,0,0,1,0-1.763Z" fill="#ccc"/>
  </g>
</svg>
