<svg xmlns="http://www.w3.org/2000/svg" width="33" height="26.399" viewBox="0 0 33 26.399">
  <path id="Path_108" data-name="Path 108" d="M1369.038,635.733h-18.954a.414.414,0,0,0-.412.413l-.006,2.475a.414.414,0,0,0,.413.412h18.959a.414.414,0,0,0,.413-.412v-2.475A.414.414,0,0,0,1369.038,635.733Zm0,4.95h-18.969a.414.414,0,0,0-.413.413l-.005,2.475a.414.414,0,0,0,.412.412h18.975a.414.414,0,0,0,.413-.412V641.1A.414.414,0,0,0,1369.038,640.683Zm0-9.9h-18.944a.413.413,0,0,0-.412.413l-.005,2.475a.413.413,0,0,0,.412.412h18.949a.414.414,0,0,0,.413-.412V631.2A.414.414,0,0,0,1369.038,630.783Zm5.492-7.167-14.03-5.842a2.48,2.48,0,0,0-1.9,0l-14.025,5.842a2.481,2.481,0,0,0-1.521,2.284v17.671a.414.414,0,0,0,.412.412h4.125a.414.414,0,0,0,.413-.412V630.783a1.669,1.669,0,0,1,1.681-1.65h19.738a1.669,1.669,0,0,1,1.681,1.65v12.788a.414.414,0,0,0,.412.412h4.125a.414.414,0,0,0,.413-.412V625.9A2.481,2.481,0,0,0,1374.53,623.616Z" transform="translate(-1343.051 -617.584)" fill="#ccc"/>
</svg>
