<svg xmlns="http://www.w3.org/2000/svg" width="25.89" height="32.226" viewBox="0 0 25.89 32.226">
  <g id="Group_120" data-name="Group 120" transform="translate(-1031.194 -321)">
    <g id="Group_119" data-name="Group 119">
      <g id="Group_118" data-name="Group 118">
        <path id="Path_123" data-name="Path 123" d="M1042.271,321H1032.2a1.007,1.007,0,0,0-1.007,1.007v30.21a1.007,1.007,0,0,0,1.007,1.007h10.07a1.007,1.007,0,0,0,1.007-1.007v-30.21A1.007,1.007,0,0,0,1042.271,321Zm-1.007,30.21h-8.056V348.19h5.035v-2.014h-5.035v-3.021h3.021v-2.014h-3.021V338.12h5.035v-2.014h-5.035v-3.021h3.021v-2.014h-3.021V328.05h5.035v-2.014h-5.035v-3.021h8.056Z" fill="#ccc"/>
        <path id="Path_124" data-name="Path 124" d="M1055.664,346.478l-3.323,3.313V324.435l3.313,3.313,1.42-1.42-5.035-5.035a1.006,1.006,0,0,0-1.42,0l-5.035,5.035,1.42,1.42,3.323-3.313v25.356l-3.313-3.313-1.42,1.42,5.035,5.035a1.008,1.008,0,0,0,1.42,0l5.035-5.035Z" fill="#ccc"/>
      </g>
    </g>
  </g>
</svg>
