<svg xmlns="http://www.w3.org/2000/svg" width="35" height="35" viewBox="0 0 35 35">
  <path id="Path_106" data-name="Path 106" d="M117.5,1362.972a17.5,17.5,0,1,0,17.5,17.5A17.5,17.5,0,0,0,117.5,1362.972Zm0,7.762a2.964,2.964,0,1,1-2.964,2.964A2.964,2.964,0,0,1,117.5,1370.734Zm3.952,17.924a.847.847,0,0,1-.847.846h-6.21a.847.847,0,0,1-.847-.846v-1.694a.848.848,0,0,1,.847-.847h.847V1381.6h-.847a.847.847,0,0,1-.847-.847v-1.693a.847.847,0,0,1,.847-.847h4.516a.847.847,0,0,1,.847.847v7.056h.847a.848.848,0,0,1,.847.847Z" transform="translate(-100 -1362.972)" fill="#ccc"/>
</svg>
