<svg xmlns="http://www.w3.org/2000/svg" width="39.34" height="27.538" viewBox="0 0 39.34 27.538">
  <path id="Path_110" data-name="Path 110" d="M1378.238,734.683h-.984a5.189,5.189,0,0,1-3.448-1.1,2.91,2.91,0,0,0-1.953-.867h-1a2.91,2.91,0,0,0-1.952.867,5.953,5.953,0,0,1-6.9,0,2.91,2.91,0,0,0-1.953-.867h-1a2.914,2.914,0,0,0-1.953.867,5.951,5.951,0,0,1-6.894,0,2.91,2.91,0,0,0-1.953-.867h-1a2.912,2.912,0,0,0-1.953.867,5.181,5.181,0,0,1-3.446,1.1h-.984a.983.983,0,0,0-.983.983v1.968a.983.983,0,0,0,.983.983h.984a9.875,9.875,0,0,1,11.8,0,9.875,9.875,0,0,1,11.8,0,9.875,9.875,0,0,1,11.8,0h.984a.983.983,0,0,0,.983-.983v-1.968A.983.983,0,0,0,1378.238,734.683Zm-24.588-1.967v-5.9h11.8v5.9a3.372,3.372,0,0,0,2.114-.579,5.311,5.311,0,0,1,1.82-1.111V716.98a1.967,1.967,0,1,1,3.934,0v.983a.983.983,0,0,0,.984.984h1.967a.983.983,0,0,0,.983-.984v-.983a5.9,5.9,0,1,0-11.8,0v5.9h-11.8v-5.9a1.967,1.967,0,1,1,3.934,0v.983a.983.983,0,0,0,.983.984h1.967a.983.983,0,0,0,.984-.984v-.983a5.9,5.9,0,0,0-11.8,0v14.046a5.324,5.324,0,0,1,1.82,1.11A3.363,3.363,0,0,0,1353.65,732.716Z" transform="translate(-1339.881 -711.079)" fill="#ccc"/>
</svg>
