<svg xmlns="http://www.w3.org/2000/svg" width="48.906" height="34.234" viewBox="0 0 48.906 34.234">
  <path id="Path_120" data-name="Path 120" d="M1529.366,334.672a4.891,4.891,0,1,0-4.89-4.891A4.9,4.9,0,0,0,1529.366,334.672Zm34.234,0a4.891,4.891,0,1,0-4.89-4.891A4.9,4.9,0,0,0,1563.6,334.672Zm2.446,2.445h-4.891a4.878,4.878,0,0,0-3.446,1.421,11.177,11.177,0,0,1,5.738,8.36h5.044a2.443,2.443,0,0,0,2.445-2.445v-2.445A4.895,4.895,0,0,0,1566.046,337.117Zm-19.563,0a8.559,8.559,0,1,0-8.558-8.558A8.554,8.554,0,0,0,1546.483,337.117Zm5.869,2.445h-.634a11.814,11.814,0,0,1-10.469,0h-.634a8.805,8.805,0,0,0-8.8,8.8v2.2a3.668,3.668,0,0,0,3.667,3.668h22.008a3.669,3.669,0,0,0,3.668-3.668v-2.2A8.805,8.805,0,0,0,1552.352,339.562Zm-17.094-1.024a4.881,4.881,0,0,0-3.446-1.421h-4.891a4.9,4.9,0,0,0-4.891,4.891v2.445a2.443,2.443,0,0,0,2.446,2.445h5.035a11.207,11.207,0,0,1,5.747-8.36Z" transform="translate(-1522.03 -320)" fill="#ccc"/>
</svg>
