<svg xmlns="http://www.w3.org/2000/svg" width="52" height="52" viewBox="0 0 52 52">
    <g fill="none" fill-rule="evenodd">
        <path d="M0 0h52v52H0z"/>
        <g transform="translate(2 5)">
            <circle cx="33.158" cy="16.579" r="15.474" fill="#CEF3F5"/>
            <path stroke="#1B2629" stroke-linecap="round" stroke-linejoin="round" stroke-width="3" d="M16.141 32.619l-6.19 2.661a3.823 3.823 0 0 0-2.315 3.51V42h26.728v-3.21c0-1.526-.911-2.907-2.314-3.508l-6.207-2.65"/>
            <circle cx="21" cy="3.818" r="3.818" stroke="#1B2629" stroke-linecap="round" stroke-linejoin="round" stroke-width="3"/>
            <circle cx="38.182" cy="13.364" r="3.818" stroke="#1B2629" stroke-linecap="round" stroke-linejoin="round" stroke-width="3"/>
            <circle cx="3.818" cy="13.364" r="3.818" stroke="#1B2629" stroke-linecap="round" stroke-linejoin="round" stroke-width="3"/>
            <path stroke="#1B2629" stroke-linecap="round" stroke-linejoin="round" stroke-width="3" d="M21 34.364a7.637 7.637 0 0 1-7.636-7.637v-1.909a7.637 7.637 0 0 1 15.273 0v1.91A7.637 7.637 0 0 1 21 34.363z"/>
        </g>
    </g>
</svg>
