<svg width="24" height="28" viewBox="0 0 27 31" fill="none" xmlns="http://www.w3.org/2000/svg">
<path d="M22.7963 21.6982C24.2228 19.9691 25.1437 17.8601 25.4524 15.6154C25.761 13.3707 25.4449 11.082 24.5406 9.01427C23.6363 6.94655 22.1807 5.18435 20.3424 3.93164C18.5041 2.67894 16.3582 1.98696 14.1532 1.9358C11.9481 1.88464 9.77405 2.47639 7.88262 3.64257C5.9912 4.80874 4.45976 6.50164 3.46559 8.52531C2.47141 10.549 2.05515 12.8207 2.26498 15.0774C2.47481 17.3342 3.30215 19.4837 4.65125 21.2772L1 29.5565L8.34853 24.4982C10.7042 25.8042 13.4249 26.2387 16.055 25.729C18.6852 25.2193 21.0651 23.7963 22.7963 21.6982V21.6982Z" stroke="#C4C4C4" stroke-width="2" stroke-linecap="round" stroke-linejoin="round"/>
</svg>
