<svg xmlns="http://www.w3.org/2000/svg" width="34.168" height="40.557" viewBox="0 0 34.168 45.557">
  <path id="Path_29" data-name="Path 29" d="M831.9,3562.368H806.271a4.272,4.272,0,0,0-4.271,4.271v37.015a4.272,4.272,0,0,0,4.271,4.271H831.9a4.272,4.272,0,0,0,4.271-4.271v-37.015A4.272,4.272,0,0,0,831.9,3562.368Zm-17.084,2.847h8.542a1.424,1.424,0,0,1,0,2.848h-8.542a1.424,1.424,0,1,1,0-2.848Zm4.271,11.389a5.695,5.695,0,1,1-5.7,5.7A5.7,5.7,0,0,1,819.084,3576.6Zm9.965,21.07a1.865,1.865,0,0,1-1.993,1.709H811.111a1.866,1.866,0,0,1-1.993-1.709v-1.708c0-2.829,2.678-5.125,5.98-5.125h.444a9.165,9.165,0,0,0,7.083,0h.445c3.3,0,5.979,2.3,5.979,5.125Z" transform="translate(-802 -3562.368)" fill="#fff"/>
</svg>
