<svg width="20" height="16" viewBox="0 0 23 19" fill="none" xmlns="http://www.w3.org/2000/svg">
<path d="M20.125 0H2.875C1.28728 0 0 1.41787 0 3.16667V15.8333C0 17.5821 1.28728 19 2.875 19H20.125C21.7127 19 23 17.5821 23 15.8333V3.16667C23 1.41787 21.7127 0 20.125 0ZM15.3927 8.4501L21.4783 2.70587C21.5204 2.8543 21.5625 3.00274 21.5625 3.16667V15.8333C21.5625 15.9431 21.5246 16.0406 21.505 16.1441L15.3927 8.4501ZM20.125 1.58333C20.2205 1.58333 20.3047 1.62356 20.3945 1.64365L11.5 10.0412L2.60547 1.64365C2.69531 1.62356 2.77954 1.58333 2.875 1.58333H20.125ZM1.49437 16.1426C1.4747 16.039 1.4375 15.9431 1.4375 15.8333V3.16667C1.4375 3.00274 1.48031 2.8543 1.52245 2.70587L7.60586 8.44857L1.49437 16.1426ZM2.875 17.4167C2.72972 17.4167 2.59774 17.3703 2.46509 17.3254L8.698 9.47986L11.0325 11.6832C11.1666 11.8116 11.3337 11.875 11.5 11.875C11.6663 11.875 11.8334 11.8116 11.9675 11.6833L14.302 9.47991L20.5349 17.3255C20.403 17.3703 20.271 17.4167 20.125 17.4167H2.875Z" fill="#C4C4C4"/>
</svg>
