<svg xmlns="http://www.w3.org/2000/svg" width="148.047" height="131.597" viewBox="0 0 148.047 131.597">
  <path id="Path_16" data-name="Path 16" d="M482.322,1501.727l-15.085-13.321v-35.069a4.112,4.112,0,0,0-4.112-4.112h-16.45a4.112,4.112,0,0,0-4.112,4.112v13.281l-26.016-22.971a10.26,10.26,0,0,0-13.756,0l-65.8,58.088a4.694,4.694,0,0,0-1.352,3.059,4.8,4.8,0,0,0,1.051,2.753l5.5,6.114a5.429,5.429,0,0,0,3.084,1.362,5.571,5.571,0,0,0,2.748-1.056l4.087-3.6v54a8.224,8.224,0,0,0,8.225,8.225h98.674a8.224,8.224,0,0,0,8.225-8.225v-54.006l4.089,3.6a5.638,5.638,0,0,0,2.756,1.059,5.364,5.364,0,0,0,3.051-1.364l5.5-6.12a5.573,5.573,0,0,0,1.051-2.748A5.4,5.4,0,0,0,482.322,1501.727Zm-72.659-15.49a16.449,16.449,0,1,1-16.449,16.449A16.449,16.449,0,0,1,409.663,1486.237Zm28.787,69.911H380.877a4.113,4.113,0,0,1-4.113-4.113,24.674,24.674,0,0,1,24.675-24.674h16.449a24.674,24.674,0,0,1,24.675,24.674A4.113,4.113,0,0,1,438.45,1556.148Z" transform="translate(-335.64 -1441)" fill="#ccc"/>
</svg>
