<svg xmlns="http://www.w3.org/2000/svg" width="145.28" height="129.134" viewBox="0 0 145.28 129.134">
  <path id="Path_17" data-name="Path 17" d="M955.726,1478.4,969.413,1482a2.169,2.169,0,0,1,1.673,2.043,2.224,2.224,0,0,1-2.3,2.119h-8.978a7.566,7.566,0,0,1-2.823-.555,3.614,3.614,0,0,0-3.859.5l-4.792,4.414a2.94,2.94,0,0,0-.567.671,2.881,2.881,0,0,0,.96,3.959l.018.011a21.118,21.118,0,0,0,8.7,2.9v4.465a4.234,4.234,0,0,0,4.381,4.035h4.381a4.234,4.234,0,0,0,4.384-4.035v-4.439c8.3-.908,14.588-7.819,13.493-15.89-.794-5.8-5.664-10.416-11.743-12.031l-13.688-3.606a2.169,2.169,0,0,1-1.672-2.043,2.224,2.224,0,0,1,2.3-2.119h8.978a7.579,7.579,0,0,1,2.833.555,3.615,3.615,0,0,0,3.859-.5l4.792-4.414a2.849,2.849,0,0,0,.547-.656,2.883,2.883,0,0,0-.945-3.966l-.023-.014a21.14,21.14,0,0,0-8.707-2.9v-4.47a4.232,4.232,0,0,0-4.381-4.035h-4.381a4.232,4.232,0,0,0-4.381,4.035v4.439c-8.295.908-14.591,7.819-13.5,15.89C944.772,1472.165,949.657,1476.78,955.726,1478.4Zm74.2,46.357a8.348,8.348,0,0,0-10.744,0l-23.3,18.639a16.052,16.052,0,0,1-10.089,3.531H955.963a4.036,4.036,0,1,1,0-8.071h19.746a8.371,8.371,0,0,0,8.386-6.709,7.847,7.847,0,0,0,.116-1.377,8.07,8.07,0,0,0-8.071-8.056H935.786a29.681,29.681,0,0,0-18.69,6.631l-11.728,9.511H891.4a4.035,4.035,0,0,0-4.036,4.035V1567.1a4.036,4.036,0,0,0,4.036,4.035h89.983a16.137,16.137,0,0,0,10.088-3.531l38.143-30.518a8.073,8.073,0,0,0,.323-12.333Z" transform="translate(-887.36 -1442)" fill="#ccc"/>
</svg>
