<svg xmlns="http://www.w3.org/2000/svg" width="103.293" height="137.723" viewBox="0 0 103.293 137.723">
  <path id="Path_18" data-name="Path 18" d="M1535.117,1504.71v7.532a3.237,3.237,0,0,1-3.228,3.227H1486.7a3.237,3.237,0,0,1-3.228-3.227v-7.532a3.237,3.237,0,0,1,3.228-3.228h45.191A3.237,3.237,0,0,1,1535.117,1504.71Zm-3.228,19.367H1486.7a3.238,3.238,0,0,0-3.228,3.228v7.532a3.238,3.238,0,0,0,3.228,3.228h45.191a3.238,3.238,0,0,0,3.228-3.228v-7.532A3.238,3.238,0,0,0,1531.889,1524.077Zm29.051-50.6v89.332a12.915,12.915,0,0,1-12.912,12.911h-77.469a12.915,12.915,0,0,1-12.912-12.911v-111.9A12.915,12.915,0,0,1,1470.559,1438h54.9a12.913,12.913,0,0,1,9.119,3.793l22.568,22.568A12.866,12.866,0,0,1,1560.94,1473.48Zm-34.431-21.519v20.47h20.47Zm21.519,110.851v-77.47h-27.975a6.441,6.441,0,0,1-6.456-6.455v-27.975h-43.038v111.9Z" transform="translate(-1457.647 -1438)" fill="#ccc"/>
</svg>
