<svg xmlns="http://www.w3.org/2000/svg" viewBox="0 0 600 268.3" version="1.1" x="0px" y="0px">
  <path fill="#0098a9" d="M13.9 268.3c0-.5-.4-.9-1-.9 0 0-2.2 0-5.3-.1-1.8-.1-5.1.1-7.6.2v.9h13.9zM206.4 202.5c1.5-.1 4 0 5.7 0h2.5c.5 0 1-.5 1-1 0-12.3-.1-21.3-.1-21.3 0-.5-.5-1-1-1h-8.2c-.5 0-.9.4-1 .9 0 .1-.3 3.1.1 9.6.4 6.3.1 11.8.1 11.8-.2.5.3 1.1.9 1zm.8-21.3h6.3c0 2.6.1 9.9.1 19.4l-6.1-.1c.1-1.9.2-6.2-.1-10.9-.4-4.4-.3-7.1-.2-8.4zM376 255.3c0-11.7-15.4-11.3-15.4.1 0 5.1 3.9 7.4 7.5 7.4 4 0 7.9-2.6 7.9-7.5zm-13.3.1c0-4.6 3-6.7 5.8-6.7s5.6 2 5.6 6.6c-.1 7-11.4 7.5-11.4.1zM91.3 94.1l-.2-6.1c-.1-3.1 0-9.6 0-9.6 0-.5-.4-1-1-1-1.2 0-6.4-.1-8.1.1-1.8.1-7 0-7.8 0-.6 0-1.1.5-1 1.1.1.9.3 5.6.3 8.1 0 1.5 0 2.1.3 7.7 0 .5.5 1 1 1l15.6-.1c.5-.2.9-.6.9-1.2zm-15.6-.9c-.3-6.4-.2-4.8-.2-8.8 0-2.2-.1-4-.2-5 1.7.1 5.2.1 6.9 0 1.5-.1 5.2-.1 6.9-.1 0 2-.1 6.3 0 8.8.1 2 .1 3.9.2 5.1H75.7zM169 263.5h13.6c1.2.1 3.1.3 3.1-1.1l-.1-3.4c-.1-1.3-1.7-1-2.6-.9 0-3.3-.2-13.8-.4-27.8 0-.5-.4-.9-.9-1-.1 0-3.5-.5-6-.4h-4.3c-.6 0-1.1.5-1.1 1.1 0 .1.5 7.6.2 16.2-.2 6.4-.1 10.2 0 12-2.9 0-2.4-.1-2.5 4.2 0 .6.4 1 1 1.1zm11.4-32.3c.2 13.6.4 23.7.4 26.9h-8.3c-.1-1.6-.3-5.5-.1-11.8.2-6.8 0-12.9-.1-15.3 3.2.1 4.4-.2 8.1.2zm-10.4 29l11.8-.1c.1 0 .2 0 .3-.1h1.3l.1 1.4-5.1-.1H170v-1.1zM299.4 256.8l7.3-.2c.1 1.8 0 6.4-.1 11.7h2c.2-12.9.1-13-.3-13.4-.2-.2-.5-.3-.7-.3l-9.2.2c-.5 0-1 .5-1 1v12.5h2v-11.5zM319.9 245.2c.3 0 .7 0 1-.1 4.8-.5 7.2-5 7-8.9-.2-3.5-2.4-7-7-7-.5 0-1 0-1.5.1-5.4.8-7.5 4.9-7.2 8.5.4 3.8 3.1 7.4 7.7 7.4zm-.1-13.8c.4-.1.8-.1 1.2-.1 3.5 0 4.9 2.7 5 5.1.2 3.1-1.6 6.4-5.2 6.8h-.8c-3.6 0-5.5-2.8-5.7-5.4-.2-2.5 1.1-5.7 5.5-6.4zM206.1 239.2h8.2c.7 0 1.1-.6 1-1.2 0-.9-.3-5.9.1-11.7.4-6.4.1-9.4.1-9.6-.1-.5-.5-.9-1-.9h-8.2a1 1 0 0 0-1 1c0 .1-.1 9-.1 21.3-.1.7.3 1.1.9 1.1zm1.1-21.3h6.3c.1 1.3.1 4.1-.1 8.3-.3 4.7-.2 9-.1 10.9l-6.1.1c-.1-9.4-.1-16.8 0-19.3zM507.5 262.9c-.1-1.8-.3-3.3-.3-7.6 0-14.8 16.4-15.1 18.1.8.4 3.4.6 8 .7 12.2h2c-.1-4.3-.4-8.9-.7-12.4-2-18.6-22.1-17.7-22.1-.6 0 4.4.1 5.9.3 7.7.1 1.2.2 2.6.3 5.3h2c-.1-2.7-.2-4.1-.3-5.4zM81.9 231.7c-1-.1-12-.1-13.1-.1-.5 0-1 .5-1 1 0 .1-.1 8.9 0 14.4 0 .5.4 1 1 1l13.1.3c.6 0 1-.5 1-1v-14.6c-.1-.5-.5-.9-1-1zm-1.1 14.6l-11-.3v-12.4h11v12.7zM138.5 268.3h2v-23.8c0-19.2 20.7-17.1 20.7.2l.1 23.6h2l-.1-23.6c0-20-24.7-22-24.7-.2v23.8zM1.9 247.9c0 .5.5 1 1.1 1 1.1-.1 5.6-.2 7.6 0 2.4.2 6.9.2 8.8.2.6 0 1-.5 1-1 0-.1-.4-8.5-.4-10.4 0-2-.2-5-.2-5.1 0-.5-.5-.9-1-.9-.1 0-7.1.2-15.7.7-.5 0-.9.5-.9 1 0 2.5 0 6.3-.2 7.7-.3 1.7-.1 6.6-.1 6.8zm2-6.7c.2-1.4.2-4.5.2-7.1 6.3-.4 11.6-.6 13.7-.7.1 1.1.2 2.8.2 4 0 1.6.2 7.2.4 9.5h-1.5c-1.8 0-4.2 0-6.1-.2-1.8-.1-5.1-.1-6.9-.1-.1-1.6-.2-4.3 0-5.4zM517.9 216.4c-8.5 0-8.5 13.5-.4 13.4 9.5-.1 10-13.4.4-13.4zm0 2c6.9 0 6.5 9.3-.4 9.4-5.5 0-5.4-9.3.4-9.4z"/>
  <path fill="#0098a9" d="M52 265.4c-.6.9-1.3 1.9-2 2.9h2.4c3.5-5.1 6.5-9.3 7.4-10.6l31.9-.8 7.5 11.3h2.4L93 255.3c-.2-.3-.5-.5-.8-.4 0-2.4 0-8.8-.1-13.6h5.4c.5 0 1-.4 1-1 .2-5.2.1-10.7.6-15.8.1-.6-.5-1.1-1.1-1.1 0 0-3.3.2-6.1 0L85.1 209l13-.1c.6 0 1-.5 1-1l-.2-6.1c-.1-3.1 0-9.6 0-9.6 0-.5-.4-1-1-1-.2 0-5.1-.2-8.1.1-3 .2-7.8 0-7.8 0-.6 0-1.1.5-1 1.1.1.9.3 5.9.3 8.3-.5-1.1-4-8.8-4.3-9.1-.2-.2-.5-.3-.8-.3-.2 0-17.8.6-33.9.2-4.9-.1-9.6-.2-13.9-.2v-13.6c15.9-.2 32.1.5 48.3.9 10.2.2 21-.2 31 .5v89.5h2v-90.4-.1c0-.2-.1-.5-.3-.6l-8.4-8.6c.1-.2 0-.4 0-.7l-.2-31.6c4.3-.2 28.7-1.2 57.9-.9 17.1.2 35.1.4 47.6.6l-2.7 4.8h-5.7c-.5 0-.9.4-1 .9 0 .2-.4 3.8-.2 11.7-.1.4-7.7 13.6-7.8 14.3-.1.5 0 73.4 0 100.7h2v-99.5h41.2v99.5h2V242c23.7-.1 45.8-1 50.8-1.2v27.5h2v-28.1c1.9-1.8 12.1-11.3 16.4-15.3 1.4-1.3 3.6-3.5 6-5.9l11.5-11.7c2.3 2.6 9.8 10.8 15.7 16 6.1 5.4 13.4 14.1 15.2 16.2-2.6 5.2-5 9.8-6.7 12.7-2.2 3.8-4 7.2-5.3 10.1v-6.6c0-.5-.4-1-1-1l-9.2-.2c-.3 0-.5.1-.7.3-.4.4-.5.5-.3 13.4h2c-.1-7.4-.1-10.5-.1-11.7l7.3.2v10.2c-.2.5-.4.9-.5 1.3h2.1c.1-.2.2-.5.3-.7 1.4-3.3 3.7-8.3 7.1-14.2 1.8-3 4.4-8 7.1-13.4 4-8 8.5-17.2 11.6-23.8.3-.2.5-.5.5-.8v-.1c1.1-2.4 2.1-4.4 2.7-5.7 3 6.2 12.7 26.2 18.1 37.2 3.9 7.9 7.9 16.2 10.6 21.6h2.2c-2.6-5.4-6.9-14.2-11-22.5-5.6-11.4-15.7-32.3-18.3-37.7 1.3-.1 3.4-.2 6-.3 9 20.8 12.9 28.2 16 34.3 1.7 3.2 3.1 5.9 5 10 3 6.4 5.7 12.2 7.6 16.3h2.2c-1.9-4.1-4.8-10.2-8-17.1-1.9-4.2-3.4-7.1-5-10.1-3.1-5.9-6.9-13.3-15.7-33.4 1.5 0 3.2-.1 5-.1 8.1 15.7 13.4 25.6 17.3 32.9 4.6 8.6 6.9 12.8 9 17.7 1.7 3.9 3.4 7.5 4.7 10.2h2.2c-1.4-2.8-3.2-6.7-5.1-11-2.1-4.9-4.4-9.2-9-17.8-3.8-7.1-8.9-16.7-16.8-31.9 2.3 0 4.6 0 7.1.1 4.6 8.6 7.6 15.7 10.2 21.9 2.5 5.9 4.6 11 7.6 16.2 4 6.9 8.9 16.6 11.8 22.6h2.2c-2.9-5.8-8.1-16.2-12.3-23.6-2.9-5-5-10.1-7.5-16-2.5-6-5.4-12.9-9.7-21.1l6.6.3c6.8 14.6 12.1 26.5 18.9 40.2 3.8 7.8 7.7 15.4 10.2 20.1h2.3c-2.4-4.7-6.6-12.7-10.7-21-6.6-13.3-11.8-25.2-18.4-39.3 2.4.1 4.4.1 6.2.2 1.3 2.9 7.6 16.6 13.9 29.5 5 10.2 11.5 23.6 15 30.6h2.2c-3.3-6.8-10.2-20.8-15.4-31.5-5.8-11.8-11.6-24.4-13.5-28.5 1.9.1 3.2.1 3.9.1.4.6 1.2 1.9 2.5 4 .2.5 1.5 2.3 1.8 3.1 0 .1.1.3.2.4 3.1 5.3 7.6 13.5 13.7 25.4 7.2 14.2 11.2 22.5 13.2 27.1h2.2c-1.9-4.2-5.8-12.4-13.2-27.1 5.6.1 10.1.2 13.7.2 9.2 0 12.9-.2 14.3-.4l14.7 27.2h2.3l-1.7-3.1c9.2 0 14.5.1 16.4.1v3h2l.3-45.3 21.2-29.9 19.1 30.9c-.1 3-.9 26.7-1.1 44.2h2c.2-16.5.9-38.6 1.1-43.5 12 0 25.4-.1 37.2-.3 0 2.1-.1 7.6-.5 18.9-.3 7.9-.3 17.5-.2 24.9h2c-.1-7.4-.1-16.9.2-24.8.6-15.4.6-19.8.5-20.3-.2-.7-17-31.9-17.1-32.2-.2-7.7 0-13.6 0-15.1 1.2-1.4 7.4-8.5 17.2-17.8 5.2-5 8.8-8.3 13.8-13.7 2.4 2.2 4.5 4 6.3 5.7v-2.7l-3.6-3.3c1 0 2.2.1 3.6.1v-2c-3.8-.1-6.3-.2-6.5-.2-.6.1-.7.5-1.2 1H571l-6.6-.3c-.1-1.2-.2-3.7-.3-7.2 8.1.3 19.2.6 28 .7 1.5.1 4.8.1 8.1.1v-2l-7.1-.1c0-3.5-.1-15.9-.1-23.1 0-15.7-18-14.3-18 .2l-.1 22.6c-9.4-.3-18-.6-20.8-.7.1-3.3.5-14.1.5-21.5 0-8.2.3-30.1.3-33.3L584 48.6l16 18.5V64l-15.3-17.7c-.2-.2-.5-.3-.8-.3l-21.3.2h-2l-30.6.2c-.6 0-2.4 2-2.4 2l-6.7 6.7-5.2 5.1-.9.9-5.8-5.8-16.5-16.5-9.6-9.6c-.2-.2-.4-.3-.6-.3l-7.3-.3h-1.2l-6.8-.1h-3c-.4 0-6.4-.1-6.9 0h-27.2c-7 0-16 0-29.2.1l-.6.2s-4.7 3.8-13.5 13.5l-2 2.2-7.6 8.1-2 2c-2.6 2.7-4.7 4.8-5.9 6h-16.8c-.7 0-4.2-.2-12.9-.1h-3l-14.5.3-12.7-12.7-3.3-3.3c-.2-.2-.5-.3-.7-.3 0 0-3.4.1-14.2 0h-1l-2-.1h-9c-8 0-15.3.1-19.6.2h-3.2s-1.2 0-2 .5l-5.5 5.5-2 2-5.9 5.9-1.9 2c-2 2-3.8 4-5.2 5.6-.1.1-.2.3-.3.4l-1.9 2c-1.9 2-4 4.1-5.8 6l-2 2c-1.7 1.7-3.2 3.1-4.2 4 0 0-1.4 1-1.4 3.7.1 10.5.3 22.2.3 32.1-3.7-7.9-7.8-17.5-7.9-17.6-.2-.4-.5-.6-.9-.6l-30.8-.2c-4.9 0-9.8 0-15.7-.1.2-9.4.2-31.3.1-31.8l-.2-.4c-8-14.4-10.8-20.5-13.7-27l-4.2-9.1-8.9-18.5C133.3 5.2 131 .5 131 .4L106.3 0h-13l-13 .1-13.2.2h-4c-3.2 0-31.6.4-32 .5-.3.1-.5.3-.6.6-.5 1.1-1 2.3-1.5 3.6-3.7 8.8-9.4 22-15.3 32.9C8 48.2 2 60.1 0 64.1v3.1l9.7 11.3c0 3.1.3 25.2.3 33.4 0 7.4.4 19 .5 22.7L0 134.3v2c5.2 0 10.7 0 11.1.1h.8c3.2.1 5.2.1 6.3.2v6.2c-7-.1-13.6-.3-18.2-.5v2c4.8.2 11.8.4 19.1.5 5.6.2 12.8.1 17.8 0 15.7-.4 34.8-.3 37.8-.2l4.7 4.8H54.1c-6.3 0-10.7.1-15.8.2-7.4.1-16.7.3-35.6.3a261 261 0 0 1-2.7-2.4v2.7c4.8 4.3 8.2 7.4 13.7 12.6 6 5.7 11.6 12.7 12.7 14.1V191c-8.8-.1-15.2-.2-15.2-.2-.4 0-.7.2-.9.5L3 204.9c0-.9-.1-2-.1-3.2-.1-3.1 0-9.6 0-9.6 0-.5-.4-1-1-1H0v2h.8c0 2-.1 6.3 0 8.8.1 2 .1 3.9.2 5.1H0v2h.8c-.1.2-.4.8-.8 1.5v4.2l2.9-5.4c22.4.4 41.8.6 63.7 0-.9 1.9-2.1 4.1-3.3 6.3-3.9 0-26.1-.1-34.2-.1-8.7 0-16.9 0-29-.5v2c12.1.5 20.3.5 29 .5 7.5 0 27.1 0 33.1.1-1.4 2.4-2.7 4.5-3.3 5.4-3.4-.2-20.7-1.1-32.1-.9-8.4.1-19.9.1-26.6.1v2c6.8.1 18.2.1 26.7-.1 11.1-.2 27.6.6 31.6.9v30.8h-.1c-1.8 0-43.4-.2-58.3-.3v2c13.9.1 51 .3 57.4.3-.9 1.3-2.3 3.3-4 5.7-1.1 0-13.4-.3-27.9-.3-16.4 0-12.3 0-25.5.2v2c13.2-.2 10-.2 27-.2 13.7-.1 21.6.1 24.9.2zm40-39.8c1.8.1 3.8 0 5 0-.3 4.5-.3 9.2-.4 13.8h-4.4c0-.8 0-1.6-.1-2.2-.3-3.7-.2-9-.1-11.6zm484.9-114.3c0-11.9 14-13.2 14-.2 0 7.2 0 19.5.1 23.1l-14.1-.3v-22.6zm-487 81.8c2.2-.2 5.4-.1 6.9-.1 0 2-.1 6.3 0 8.8.1 2 .1 3.9.2 5.1l-12.8.1-.8-1.8c-.1-3-.1-3.7-.1-4.8l-.2-7.1c1.5-.1 4.6 0 6.8-.2zm68.7-59.7c-30.6-.3-55.9.8-58.4.9-.5-1-1.5-3.2-3.7-8.3h92.6c8.2 0 15.8.1 22.5.3l-4.3 7.7c-12.6-.2-31.1-.4-48.7-.6zm40.1 9.4h3.7l-3.9 7c.1-3.5.2-5.8.2-7zm.2 24l23.7-42.9h4.6l-23.7 42.9h-4.6zm6.9 0l23.7-42.9h4.6l-23.7 42.9h-4.6zm6.9 0l23.7-42.9h4.6l-23.7 42.9h-4.6zm6.9 0l23.7-42.9h4.6l-23.7 42.9h-4.6zm12.8 0h-6l23.7-42.9h6l-23.7 42.9zm1.6 1.3l23.8-43.1 14.5 26.4v3.8c0 15.3.2 20.7.3 34.5 0 5.6.1 11.3.2 16.4h-1.7c-.3 0-.6 0-.8.2-3.3 2.9-6.3 5.6-9.1 8.2 0-20.6-.1-34.3-.1-34.4 0-.6-.5-1-1-1h-8.2c-.5 0-1 .4-1 .9 0 .2-.3 5.4.1 16.4.3 10.2.1 25.1.1 27.4-5.4 4.9-10.7 9.7-16.9 15v-70.7zm18.9 28.4c-.3-8.3-.2-13.4-.1-15.3h6.3c0 3.6.1 16.7.1 34.9 0 .1 0 .2.1.3-1.7 1.6-3.4 3.1-5 4.6-.4.4-.8.7-1.2 1.1 0-4.9.1-17-.2-25.6zm32.5 42.3c-3.1.1-25.3 1.1-49.6 1.2 2.6-2.2 5.1-4.3 7.4-6.4H269c10.2 0 18.2-.1 22.2-.1-2.7 2.4-5 4.6-5.8 5.3zm8-7.4c-.4.2-44.4.2-47.8.2l6.9-6.3c2.6-.1 18.8-.6 30.8-.7 8.5 0 14.4-.1 17.6-.2-2.1 2-4.9 4.5-7.5 7zm15.9-15.2c-2.4 2.4-4.6 4.6-6.3 6.2-1.6 0-8.4.2-19.8.2-10.1 0-23 .4-28.6.6l8.3-7.6.5.1c.2 0 19.6-.1 45.8.3h.1v.2zm2.1-2.1h-2.1c-22-.3-39.1-.3-44.3-.3 2-1.8 4.1-3.7 6.3-5.6l38-1 9.1-.2c-1.6 1.7-4.3 4.3-7 7.1zm-22.2-8.4l-7 .2c-.2-13.8-.3-24.1-.3-27.2h7.2c.1 1.8.3 6.1.1 13.2-.2 5.4-.1 10.3 0 13.8zm15.9-.4l-7 .2c-.2-13.6-.3-23.7-.3-26.8h7.2c.1 1.8.3 6.1.1 13.2-.1 5.2-.1 10.1 0 13.4zm47.5 32.4c-2.5-3-9.2-10.8-14.8-15.8-7.1-6.3-16-16.6-16.4-16.8-.2-.1-.4-.2-.6-.2l-11.6.3-2.1.1c-.1-3.3-.1-8.1 0-13.3.3-9.7-.1-14.2-.1-14.4 0-.5-.5-.9-1-.9h-9.2c-.5 0-1 .5-1 1 0 .1.1 11.4.3 27.9l-5 .1c-.1-3.5-.2-8.4 0-13.7.3-9.7-.1-14.2-.1-14.4 0-.5-.5-.9-1-.9h-9.2c-.5 0-1 .5-1 1 0 .1.1 11.6.3 28.3l-5.4.1c-.2-9.6-.2-22.1-.3-31.4-.2-10.8-.1-34.4-.3-44.9-.2-9.4-.1-15.9 0-18.2 3.6-.2 17.2-.8 28.2-.6 2.6 0 4.9.1 6.9.1 5.4.1 8.6 0 10.1 0 0 2 .1 7.5.2 19.3.2 15.9.1 51.7.1 52 0 .6.5 1 1 1l7.5-.2c-.1 1.9-.1 6.9-.1 7.8 0 .5.5 1 1 1h6.7v7.1c0 .6.5 1 1 1l7.1-.2c.1 1.7-.1 6.5-.1 7.2 0 .5.4 1 .9 1 1.2.2 6 0 7.8.1l-.1 7.1c0 .6.5 1 1 1h6.2v2c-.1 1.4 0 4.2 0 5.1-2.1 4.6-4.5 9.6-6.9 14.3zM263.2 84.5c1.8-.1 5.4 0 6.9.1 1.7.2 5.2.1 7 .1l-.4 12c-.1 1.2-.1 3-.2 6.4H263c0-1.4.1-4.1.2-6.9V84.5zm34.2-14.4c-4.7.1-10 .2-16.8.3l-6.8-7.3h28.4l-4.8 7zm1.1 2c3.8-.1 7.3-.1 10.8-.1l35.8-.2c-.9 1.5-1.9 3.1-3 5-1.3.1-5.2.2-13.3.1-8.8-.1-9.9.2-19.5.3-3.5 0-7.9 0-14-.1 1.1-1.9 2.1-3.4 3.2-5zm-2.5.1c-1.6 2.4-3.3 5.3-5.1 8.4-1.6-1.5-4.9-4.6-8.4-8.2 5.3-.1 9.7-.2 13.5-.2zm-1.9 6.9c6.1.1 10.7.1 14.3.1h.9c9.6 0 10.7-.3 19.5-.3 6.3.1 10.1 0 12.1-.1l-4.1 6.7c-2.7.1-13.7.3-27.5.2-5.9 0-12.4 0-18.9-.1l3.7-6.5zm15.2 8.7h1c11.7 0 21.2-.1 25.2-.2-1.5 2.3-2.9 4.5-4.2 6.4l-22-.1h-.3c-4.5 0-10.5 0-23.7-.1 1.4-2 2.6-3.9 3.9-6.2 6.9.2 13.8.2 20.1.2zm-.3 8.1h.3l20.6.1a273 273 0 0 1-4.8 6.7c-1.6 0-6.8-.2-15.3-.1h-.6l-29.8.1c1.5-2.3 3.1-4.7 4.5-6.8 14.1.1 20.4.1 25.1 0zm.3 8.7h.6c6.7 0 11.3 0 13.7.1-1.9 2.4-3.2 3.9-3.7 4.5h-10.6c-2 0-4.2-.1-6.8-.1a487 487 0 0 0-27.4.5c.8-1.2 1.9-2.9 3.1-4.9l31.1-.1zm-33.8.6l-.6.9-14.2.1-.1-1.1h1.5c2.3.2 9.8.1 13.4.1zm86.5 78.2c8.6 0 17.5.4 25.9.2 1.3 0 2.6-.1 3.9-.1l.1 7-21.7-.2-33.4-.1h-6.7c0-2.6 0-4.7.1-6.8H362zm-17.6-2v-30.7c0-7.6 9.3-10.6 14.2-5.9 1.5 1.4 2.3 3.5 2.3 5.8 0 5 0 25.9.1 30.7l-16.6.1zm17.1 38v-.9-2.1h1.4c-.4.9-.9 2-1.4 3zm2.5-5.1h-9.6l.1-6.1h12.4c-.7 1.4-1.7 3.5-2.9 6.1zm35.9-8.4c-1.5-.1-3.2-.1-4.9-.2-6.3-.3-12.4-.3-18.4 0-8.4.3-14.3.6-23.1.6-.2 0-2.7-.1-5.1 0h-2.6c.1-2.2.2-4.5.1-6.3 14.5.1 13.8-.1 29 0 13.1.1 22.1.4 25 .5v5.4zm0-7.4c-2.9-.1-11.9-.4-25-.5-15.8-.1-14.6.1-30.1 0l-7 .1V192l32.4.1 29.6.2v6.2zm20 12.7c-1.8-3-2.7-4.3-2.7-4.3-.4-.6-1.3-.4-3.9-.5-.2-9.6-.2-16.7-.3-19.2h7.2c.1 1.5.2 5 0 10.5-.2 6 0 11.3.1 13.6 0-.1-.2-.1-.4-.1zm2.4 2.9h-.6c-.2-.3-.4-.6-.5-.9h1.2l-.1.9zm26.7 25.3c-3.7 0-8.2-.1-13.8-.2-5.3-10.4-9.5-17.9-12.4-23.1.7 0 1.5-.1 1.5-1l.1-2.9c0-1.1-1.1-1-1.9-1-.1-2.1-.3-7.5-.1-13.6.3-7.8-.1-11.5-.1-11.7-.1-.5-.5-.9-1-.9h-9.2c-.5 0-1 .5-1 1 0 .1.1 8.2.3 20.2-2.4-.1-5.5-.2-9.4-.3v-14.6c0-6.3 0-48 .1-48.6l16.5-30 7.9 18.6c3.9 9.2 5.2 12 5.7 12.9l.2 79.2c0 .5.4 1 1 1l7.7.3v7.1c0 .6.4 1 1 1h7v6.6zm-35-122.5l-7.4 13.5v-17.7l7.4.2c0 .7-.1 3.5 0 4zm109.7-45.2h-16.9l3.5-3.5h16.6l-3.2 3.5zM542 54.8h13.4l-15.6 16.9h-13.4L542 54.8zm-33 12l-10.7 10.5c-.2.2-.3.5-.3.7 0 .2.1 15.5.1 32-8.6 0-18.5-.1-36.9-.6-11.2-.3-19.9-.4-26.6-.3 0-2.2 0-7.9-.2-17.4-.2-10.5-.1-23.6 0-27.3h76.9l-2.3 2.4zm-47.8 44.6c27.8.7 32.2.5 53.1.7 11 .1 14.9.1 16.2.1.4.9 1.2 2.7 2.2 5-2.8.1-10.1.3-23.5.3h-86.5c-1.2-2.8-2-4.8-2.5-6.1 4-.2 17-.7 41 0zm51.9 23.1H430l-2.9-6.7c6.9 0 36 .1 58.9.1 23.8 0 47.6.3 51.7.3l3.4 6.8c-3.6-.1-13-.5-28-.5zm29.1 2.6c1.2 2.5 2.1 4.4 2.6 5.6-6.7-.1-33.9-.5-59-.8-27.1-.3-49.6.7-52.2.8-.4-.8-1.2-2.6-2.8-6.2h82.3c17 0 26.7.5 29.1.6zM486 125.9c-24 0-54.9-.1-59.8-.1-1-2.3-1.9-4.5-2.7-6.3h85.7c14.9 0 22.2-.3 24.4-.4 1 2.2 2.1 4.8 3.2 7.2-6-.2-28.4-.4-50.8-.4zm10.1 137.5c-2.1 0-7.7-.1-17.5-.1l-2.9-5.4c13.6 0 18.8.1 20.5.1l-.1 5.4zm.1-7.4c-1.8 0-7.1-.1-21.6-.1l-3.4-6.2h7c9.9 0 15.8-.2 18-.3v6.6zm0-8.7c-2.6.1-11 .5-26.1.3l-3.6-6.6c8.5.1 25.8-.1 29.7-.2v6.5zm.1-8.5c-4 .1-19.4.4-31.4.2-.5 0-2 .5-13.9.4V233c10.1-.1 20.2-.5 28.4-.8 7.6-.3 13.7-.5 16.9-.4v7zm0-9.1c-3.3-.1-9.4.1-17 .4-8.3.3-18.6.7-28.9.8-.1-.1-.3-.1-.5-.1h-7v-6.1c9.3.1 15.2-.1 20.5-.2 4.6-.1 8.9-.2 14.6-.2 9.8.1 15.9.3 18.2.4l.1 5zm8.1-18.6l-7.8 11c-.2.2-.2.5-.2.7-1.1 0-12.7-.4-20.4-.4-.1-12.3-1.4-32.7 14.1-33 4-.1 7.2 1.1 9.6 3.7 4.9 5.2 4.9 14.1 4.7 18zm15-20.7c-.2.1-.4.2-.5.4l-12.4 17.4c-.1-9.8-4-21.1-16.5-20.8-17.4.4-16.1 22.6-16 35-3.8 0-7 .1-10.4.2-5.4.1-11.6.3-21.4.2l-7.7-.3-.2-77.8c4.1-.2 25.8-1 51.6-.8 25.8.3 53.9.7 59.5.8-.1 3-.3 12.2-.3 19.3v26.4c-2.6-.1-25.3-.1-25.7 0zm20.8 32.4l-18.8-30.5h6.6c9.8 18.2 15 27.2 17 30.5h-4.8zm7.3 0c-1.2-2-6.4-10.5-17.1-30.5h6c5.2 10.7 10.7 19.5 15.4 30.5h-4.3zm6.5 0c-4.8-11.3-10.2-19.8-15.4-30.4h5.1c1 1.5 4.1 6.7 7.1 12.7 2.8 5.7 7.2 14.3 9 17.7H554zm8.1-.1c-1.3-2.4-6.4-12.3-9.4-18.6-2.5-5.1-5.1-9.6-6.5-11.8h6.9c3.2 6.6 4.2 8.9 4.8 10.5.7 1.7 1 2.5 3.2 6.4 3 5.5 5.5 11 6.5 13.4-1.8.1-3.7.1-5.5.1zm15.1-.1c-1.6 0-4.3 0-7.5.1-.8-1.9-3.5-8.1-7-14.4-2.1-3.8-2.4-4.6-3.1-6.2-.6-1.5-1.6-3.8-4.4-9.8h5.9l16.1 30.3zm2.6-67.1l.1-3.1h3.1c-1 .9-2.1 2-3.2 3.1zm-8.1-10.4h18.7c-1.2 1.3-3 3-5.4 5.4h-6.1l-7.3-.3v-5.1zm-9.8-9.6c0 5.2.3 8.2.3 8.4 0 .5.5.9 1 .9l6.5.2v6c0 .5.4 1 1 1l7.3.3-.2 5.1c-10.5 10.1-16.7 17.4-16.8 17.5-.1.2-.2.4-.2.6 0 .1-.2 6.2 0 14.8H547V164c0-8.8.3-20.1.3-20.4-.1-.5-1.6-4.1-5.1-10.8-3.4-6.6-10-21.8-10.1-22-.2-.4-.5-.6-.9-.6l-31.1-.2c0-14.1-.1-27.3-.1-31h52.8c-.1 4.8-.3 25-.3 32.7 0 8.8-.6 22.3-.6 22.4 0 .5.4 1 1 1 .1.1 3.7.2 9 .4zM553.4 77h-52c.9-.8 2-2 3.3-3.2h42.5c4.2 0 7.2.2 9 .4l-2.8 2.8zm4.6-4.7c-1.3-.2-4.9-.5-10.7-.5h-4.7l3.2-3.5c6.1 0 12.6.1 16 .1l-3.8 3.9zm5.6-5.8c-1.8 0-8.9-.1-16-.2l4-4.3h4c4.6 0 9.4.2 12.1.3l-4.1 4.2zm5.9-6c-1.7-.1-8-.4-13.9-.4h-2.2l4.7-5.1 7.2.1h9.5l-5.3 5.4zm-39.1-12.1l30.6-.2h1.2l19.3-.1-4.7 4.9c-.1 0-17.8.1-18.7 0h-.6c-4.9-.1-12.6-.1-31.6.1 2.4-2.6 3.9-4.1 4.5-4.7zm-6.5 6.6c6.2-.1 11.3-.1 15.4-.1l-4.5 4.9c-5.1-.1-10.2-.1-15.6-.1l4.7-4.7zm-8.4 8.2c.3-.1 1.4-1.5 1.6-1.5 5.5 0 10.7 0 15.9.1l-4.2 4.6h-16.4c1-1.2 2.1-2.2 3.1-3.2zm-33.6-32.3l31.5 31.5h-6c-1.2-1.3-6.6-7.2-30.3-31.7 2.5.1 4.1.2 4.8.2zm-7.7-.3c20.3 21 27.8 28.9 30.4 31.8h-5.8c-2.2-2.4-16.6-17.8-30.4-31.9 2.3.1 4.2.1 5.8.1zm-8.5-.1c12.6 12.8 26 27.1 30.5 31.9h-5.7c-2.3-2.5-17.4-19.2-30.6-32 2.1.1 4 .1 5.8.1zm-8.7 0c12.1 11.5 26.2 26.9 30.8 32h-5.2c-2.3-2.4-17.5-18.5-30.4-32h4.8zm-7.5 0c11.6 12.2 25.7 27 30.4 32h-5.3c-1.2-1.3-6.7-7.3-30.6-32 1.8-.1 3.6-.1 5.5 0zm-8.3-.1c20.5 21.2 28 29.1 30.6 32h-5.1c-2.3-2.5-17.4-19.2-30.7-32h5.2zm-8.1 0c12.1 11.5 26.3 27 30.9 32h-4.9c-2.2-2.4-16.6-17.9-30.5-32h4.5zm-7.3 0c12.6 12.8 26.1 27.2 30.6 32h-5.7c-1.2-1.4-6.7-7.3-30.6-32h5.7zm-8.6 0c20.5 21.2 28 29.1 30.7 32h-5.1c-2.2-2.4-16.6-17.9-30.5-32h4.9zm-7.7 0c12.6 12.8 26.1 27.2 30.6 32H434c-1.1-1.3-5-5.8-13-14.1-7.1-7.4-14.6-14.7-17.9-17.9h6.4zm-39.8 41c.1-5.1.1-7.8.1-8.7 2.8-2.8 11.7-12 15.7-16.3l2.7-3c6.9-7.6 10.9-11.3 12.4-12.6 2.4 2.3 10.9 10.6 18.9 19 8.1 8.4 12 12.9 12.9 14 0 2.5-.2 16.7 0 27.9.2 9.5.2 15.2.2 17.3-9.8.1-13.9.3-14.2.4-.3.1-.5.2-.6.5l-1.8 3.3c0-.8.3-2.4-1-2.4l-9.4-.2c-.6 0-1 .4-1 1v22.3l-4.5 8.1c-.1.1-.1.3-.1.5 0 .1-.1 8.3-.1 22.2v25.7h-6c-.1-2.4-.2-6.3-.1-8 0-.6-.5-1.1-1.1-1-2.2.2-4.5.2-6.7.2-.1-1.8-.2-5.9-.4-12.9-.3-8.8-.4-12.8-.2-23l8.3-.2c.5 0 1-.5 1-1 0-17.9.3-32.7.3-32.8 0-.6-.4-1-1-1h-8.9c-1.1-1.7-9.1-14.1-14.9-22.2-.1-1.8-.6-11.3-.5-17.1zm15.7 41.3h7.5c-.1 3.6-.3 16-.3 30.9l-7.2.2c0-.8 0-1.6.1-2.5.3-11.8 0-24.6-.1-28.6zM368 85.4c-1.2-1.7-2.4-3.7-3.7-5.7 1.6 0 2.7-.1 3.4-.1.2 2.1.3 4.2.3 5.8zm-4.9-7.7c-1.5-2.3-2.9-4.7-4.2-6.9h8.8v6.8c-.8.1-2.4.1-4.6.1zm4.7-15.2v6.3h-10c-1.6-2.7-2.9-4.9-3.7-6.3h13.7zm-15.5 1.1c4 6.8 11.5 19.8 16.1 25.9 5.6 7.7 13.4 19.8 14.9 22.1v.1c0 .2 0 .3.1.5.1 3.2.4 16.7.1 29 0 1.1 0 2.1-.1 3.1-.1.2-.2.3-.1.5 0 .2.1.3.1.5-.2 10.6-.1 14.6.2 23.6.2 6.6.4 10.7.4 12.6h-21c0-4.8-.1-25.7-.1-30.7 0-6-4.6-10.3-10.6-10.1-5.7.2-10 4.6-10 10.1v30.7c-7.3 0-13.6-.1-20.8.1 0-6 .1-36.7-.1-51-.2-13.3-.2-18.5-.2-19.9.6-.7 2.4-2.8 5-6.2 2.6-3.1 9.4-13.1 11.9-17.3l1.9-3.1c7.6-12.4 10.9-18.1 12.3-20.5zm-18.8-1.1c9-.2 14.6-.1 17.2-.1-.7 1.3-2.1 3.5-4.4 7.4l-37 .2c-3.1 0-6.1.1-9.4.1 2.2-3.3 4-5.9 4.7-7 .8 0 2.5 0 4.7-.1 5.9-.1 15.8-.3 24.2-.5zm-14.4-1.7c-3.8.1-7.2.1-9.9.2-3.1.1-5.1.1-5.2.1h-32.1c-1.9-1.9-3.9-4-5.9-6 13.1-.4 17.8-.6 21.3-.7l22-.7c1.3 0 2.2-.1 2.7-.1l7.1 7.2zm-39.4-14.4c1 .1 3.4 0 4.5 0 12.9.2 19 .1 20.6.1l4.4 4.4.7.7h-.7l-22.1.7c-3.6.2-8.6.4-23.1.8l-6.6-6.6c4 0 12.7-.2 22.3-.1zm-44.7 21c6.2-6.9 13.5-14 20-20.4 3 2.9 14.5 14.3 20 20.4 4.2 4.7 12.1 12.4 14.9 14.9-1.9 3.3-3.8 6.7-5.7 9.4-1.6 2.3-3.7 5.6-5.7 8.7.2-4.2.2-4.6.3-8.9.1-4.7.3-7.8.3-7.9 0-.6-.5-1.1-1.1-1.1-1 .1-5.8.2-7.8 0-1.9-.2-6.8-.1-8.2-.1-.5 0-1 .5-1 1 0 .1.1 8.5 0 12.5-.1 2.9-.1 5.7-.2 7-3 0-2.5.4-2.2 4.1 0 .5.5.9 1 .9l13.8-.1c-.8 1.2-1.4 1.9-1.4 2.5 0 .1-.2 7.3 0 19.2.1 4.6.1 10.8.1 17.4-1.3-2.4-13.5-24.7-13.8-25-.2-.2-.5-.3-.7-.3H220c.2-11.4-.2-26.6-.3-39.3 1.9-1.3 9.7-8.6 15.3-14.9zm-14.7 56.5l-23.7 42.9h-5.1l23.7-42.9h5.1zm-2.1-3.2v1.1h-3.6c-.4 0-.7.2-.9.5l-1.1 1.9c-7-.2-14.9-.3-23.6-.3-8.3 0-92.9-.1-93.5 0l-2.9-6.7c6.5 0 40 .1 66.2.1 27 0 54.1.3 57.9.4.6 1.1 1 2.1 1.5 3zm-2.4-4.9c-6.2-.1-31.6-.3-56.9-.3-27.7 0-63.7-.1-67.1-.1-1-2.3-1.9-4.4-2.7-6.3h95.6c19.3 0 27.1-.4 27.8-.4 1.1 2.2 2.2 4.7 3.3 7.1zm-25.3-16c12.5.1 16.8.1 18.2.1.5 1.1 1.6 3.6 2.9 6.7-2.4.1-10.5.4-27 .4H88.3c-1.6-3.7-2.7-6.4-3.3-7.9 4.3-.2 18.8-.8 46.1 0 32.8.8 37.3.5 59.4.7zm-61.1-98c.4 1 1.4 3 3.5 6.7 3 5.3 8.8 18.4 12.3 26 5.1 11 5.9 13.8 15.2 30.6-1.2 0-3.1-.1-6-.1-8.5-19.4-21-44.4-30.4-63.1 2.6-.1 4.4-.1 5.4-.1zm-7.6 0c9.3 18.5 21.8 43.5 30.4 63.1h-5.4c-6.1-13.6-14-28.2-20.3-40.1-2.6-5-4-7.9-4.9-10-.8-1.8-1.4-3.1-2.4-4.8-1.4-2.4-3.2-6.1-4.1-8.1 2.5 0 4.7-.1 6.7-.1zm-8.9.1c.7 1.6 2.8 6.2 4.5 9.1.9 1.6 1.5 2.8 2.3 4.6 1 2.1 2.3 5 5 10.1 6.2 11.8 13.7 25.8 19.9 39.2l-5.8.1c-6.5-13.2-9.7-19.3-12.6-24.7-2-3.7-3.8-7.2-6.4-12.4A843.6 843.6 0 0 1 107.6 2c1.8-.1 3.6-.1 5.3-.1zm-7.5 0c1.2 2.6 6.9 15.3 12.6 26.8 2.6 5.3 4.5 8.8 6.5 12.5 2.8 5.3 6 11.2 12.2 23.8-2.1 0-4.3 0-6.5.1-3.5-5.8-6-11.8-8.9-17.9L106 15.3c-2.1-4.5-4.4-9.2-6.8-13.3 2 0 4.1 0 6.2-.1zm-8.7.1c3.2 5.1 6 11.3 8.7 17l13.9 29c2.8 5.8 5 11.3 8.4 17h-6.1c-8.4-19.3-20.4-43.3-30.3-63h5.4zm-7.6 0c9.8 19.5 21.9 43.6 30.4 63.1h-5.7c-1.3-2.6-6.6-13.7-10.5-21.4-4-8.1-5.6-10.5-9.6-19-3.2-7.1-3.9-10.1-7.2-16.5-1.6-3.1-2.6-5-3.3-6.2 2 .1 3.9 0 5.9 0zm-8 .1c.5.8 1.6 2.8 3.8 7 3.2 6.2 3.9 9.4 7.2 16.4 3.9 8.6 5.6 11 9.6 19.1 3.5 7.1 8.3 16.9 10 20.5h-5.9c-3.5-5.8-6-11.9-8.9-18L81.4 15c-2.1-4.3-4.2-8.8-6.6-12.8l6.3-.1zm-8.7.1C75.7 7.3 78.3 13.4 81 19l14 29c2.8 5.8 5 11.4 8.4 17.1h-5.1c-6.5-13.3-9.8-19.4-12.7-24.8-2-3.7-3.8-7.2-6.4-12.4C74 17.6 69 6.5 67.1 2.3l5.3-.1zm-7.5.1c1.6 3.5 7 15.5 12.4 26.4 2.6 5.3 4.5 8.8 6.5 12.5 2.8 5.3 6 11.2 12.2 23.9h-5.4c-6.1-13.6-14-28.3-20.4-40.3-2.7-5.2-4.2-8.3-5.2-10.5-.8-1.7-1.4-2.9-2.1-4.2-1.3-2.3-2.8-5.4-3.8-7.6l5.8-.2zm-8 .1c1.1 2.5 2.7 5.9 4.2 8.6.7 1.2 1.2 2.4 2 4.1 1 2.2 2.5 5.3 5.2 10.6C74.6 37.5 82.2 51.6 88.4 65h-6C74.7 47.3 63 23.6 52.3 2.5l4.6-.1zm-6.8.1c10.6 21 22.3 44.7 30.1 62.5h-6c-6.7-13.7-10.4-20.6-13.4-26.2-1.9-3.6-3.6-6.8-5.7-11-5-10.3-9.7-20.5-11.8-25.2l6.8-.1zM15.4 38.9c6-11 11.9-24.8 15.4-33.1.2-.6.5-1.2.7-1.8 10.7 20 21.7 41.7 32.8 60.9-20.2-.1-42.7-.3-62.4-.1 2-4 7.9-15.8 13.5-25.9zm49.4 103.6c-7.7 0-18.4 0-28 .3-5.1.1-10.9.1-16.7 0v-7.2c0-.5-.4-1-.9-1 0 0-2.1-.1-6.7-.2-.1-3.5-.5-15.3-.5-22.7 0-8.8-.3-33.5-.3-33.8 0-.2-.1-.5-.2-.6L2.4 66.8c19.9-.2 42.4-.1 62.6.1 0 5.1 0 28.4-.2 41-.2 12.3 0 30.2 0 34.6zM33 2.7l8-.1c1.9 4.2 6.9 15.1 12.3 26.1 2.1 4.2 3.8 7.4 5.7 11 3 5.5 6.6 12.2 13 25.2h-5.4C55.3 45.4 44 23.1 33 2.7zm33.8 105.2c.2-12.6.2-35.9.2-41 4.9 0 9.8.1 14.7.1l31.5.1 16.3-.1c10.5-.1 21.2-.5 31.6 0 0 4.2 0 21.4-.2 30.6-7.5-.1-16.7-.3-29.8-.6-33.3-.9-47.4 0-47.9.2-.3.1-.5.3-.6.5l-15.9 31.5c0-6.8 0-14.8.1-21.3zm9 35a.9.9 0 0 0-.7-.3h-8.3c0-1.5 0-4.8-.1-8.9l16.7-33.1c2.9 7 13 31.3 15.3 35.4l.2 30.7-16-16.4c-.1-.3-.3-.5-.6-.7l-6.5-6.7zM12.7 159c-2.7-2.5-4-3.7-7.8-7.1 17.5 0 26.3-.2 33.4-.3 13.5-.2 29.2-.2 43-.2l7.4 7.6h-76zm2.3 2.3c-.1-.1-.2-.2-.3-.2 6.9 0 75.3.1 76 0l6.2 6.4H21a87.8 87.8 0 0 0-6-6.2zm7.7 8.1h76.2l7.2 7.4c-9.6-.6-19.7-.2-29.4-.4-16.4-.4-32.8-1.1-48.9-.9-.7-.9-2.6-3.3-5.1-6.1zm-11 23.5c2.9 0 16.2.2 30.5.5 13.2.3 27.5 0 32.3-.2-.7 1.3-1.8 3.4-2.9 5.7-2.2-.1-10.4-.3-26.3-.3-21.3 0-12 .1-36.8.3l3.2-6zM4 207.3l3.5-6.4c21.7-.2 43.8-.6 63.2 0-1.1 2.3-2.3 4.6-3.1 6.5-21.2.4-40.9.2-63.6-.1zm56.3 17c1-1.6 6.3-10 8.5-15.1 1.8-4.1 5.6-11.5 7.4-14.9l13.9 30c0 1.4-.2 8.3 0 12.9.2 4.3.2 14.5.2 17.7-6 .1-23.7.6-29.9.7v-31.3z"/>
  <path fill="#0098a9" d="M140.6 217.9c0 .5.5 1 1 1l15.4.1c.5 0 1-.4 1-1l.1-3.4c.1-1.4-1.7-1.2-2.9-1.1.3-16.3.4-28.1.4-28.2 0-.5-.5-1-1-1h-10.3c-.5 0-.9.4-1 .9 0 .2-.5 4.3-.1 13 .3 6.9 0 13.1-.1 15.3-3 .2-2.5 0-2.5 4.4zm4.6-19.7c-.2-6.3-.1-10.2.1-11.8h8.3c0 3.2-.2 13.6-.4 27.2-1.5 0-3.2.1-4.7 0h-3.4c.1-2.5.4-8.6.1-15.4zm1.7 17.4c2.4 0 6.4.1 8.3 0h.9l-.1 1.4-13.4-.1v-1.2c1.5-.1 3-.1 4.3-.1zM168 174.3c0 .5.4 1 1 1h13.6c1.2.1 3.1.3 3.1-1.1l-.1-3.4c-.1-1.2-1.6-1-2.4-.9 0-16.3-.1-28.1-.1-28.2 0-.5-.4-1-1-1h-10.3c-.5 0-.9.4-1 .9 0 .2-.4 4.3.1 13 .4 6.9.2 13.1.1 15.3-3.4.3-2.9 0-3 4.4zm4.6-31.4h8.3c0 3.2.1 13.6.1 27.2-1.5 0-3.3.1-4.7 0h-3.4c.1-2.4.2-8.5-.1-15.3-.4-6.4-.3-10.3-.2-11.9zm3.9 29.2c1.3 0 5.2 0 5.8-.1h1.2l.1 1.4-5.1-.1h-8.4v-1.2h6.4zM168.6 217.9c0 .5.4 1 1 1l15.4.1c.5 0 1-.4 1-1l.1-3.4c.1-1.4-1.7-1.2-2.9-1.1.3-16.3.4-28.1.4-28.2 0-.5-.5-1-1-1h-10.3c-.5 0-.9.4-1 .9 0 .2-.5 4.3-.1 13 .2 6.9 0 13.1-.1 15.3-3 .2-2.5 0-2.5 4.4zm4.6-19.7c-.2-6.3-.1-10.2.1-11.8h8.3c0 3.2-.2 13.6-.4 27.2-1.5 0-3.2.1-4.7 0h-3.4c.1-2.5.4-8.6.1-15.4zm9 17.4l1.9-.1-.1 1.5-13.4-.1v-1.2l11.6-.1zM113.9 214.7l.1 3.4c0 .5.5 1 1 1l15.4-.1c.5 0 1-.4 1-1l.1-3.2c0-1.3-1.7-1-2.5-1-.1-2.2-.4-8.4-.1-15.3.3-8.8-.1-12.9-.1-13-.1-.5-.5-.9-1-.9h-10.3c-.5 0-1 .5-1 1 0 .1.1 11.9.4 28.2-1.3-.3-3-.5-3 .9zm12.9-28.3c.1 1.6.3 5.5.1 11.8-.2 6.8 0 12.9.1 15.3-2 0-4 .1-5.9.1h-2.2c-.2-13.6-.4-24-.4-27.2h8.3zm-5.9 29.3h8.5v1.2l-13.4.1-.1-1.4 5 .1zM127.8 140.9h-4.3c-2.5-.1-5.8.3-6 .4-.5.1-.9.5-.9 1-.2 14-.4 24.6-.4 27.8-3 0-2.5-.2-2.7 4.3 0 .4.2.8.6.9.4.2 1.7.2 2.5.1 1.8-.1 5.9 0 8.2 0h5.3c.5 0 1-.5 1-1-.1-4.3.4-4.2-2.5-4.2.1-1.7.3-5.6 0-12-.3-8.6.2-16.1.2-16.2.1-.6-.4-1.1-1-1.1zm-9.1 2.2c3.7-.4 4.9-.1 8.1-.2-.1 2.4-.4 8.5-.1 15.3.2 6.3.1 10.2-.1 11.8h-8.3c.1-3.1.2-13.3.4-26.9zm10.4 29.1v1.2c-3.2 0-10.1-.1-12.6.1h-.9l.1-1.4h1.3c.9.2 5.1.1 6.4.1h5.7zM560.1 107.1c.1.5.5.8 1 .8h9.2c.6 0 1-.5 1-1 0-.1-.1-7.7-.4-18.5 0-.5-.4-.9-.9-1-.1 0-3.1-.3-5.3-.2h-3.8c-.6 0-1.1.5-1 1.1 0 0 .4 4.8.2 10.3-.4 5.8 0 8.4 0 8.5zm1.8-17.8c2.6 0 4.2-.1 7 .1.2 8.1.3 14.2.3 16.6H562c-.1-1.2-.2-3.5 0-7.2.2-4.1 0-7.7-.1-9.5zM114.2 263.4c.4.2 1.7.2 2.5.2 1.8-.1 5.9 0 8.2 0h5.3c.5 0 1-.5 1-1-.1-4.4.4-4.2-2.9-4.2-.1-2.2-.2-8.4.1-15.3.5-8.8.1-12.9.1-13 0-.5-.5-.9-1-.9h-10.3a1 1 0 0 0-1 1c0 .1-.1 11.9-.1 28.2-2.9 0-2.4-.2-2.6 4.3.1.1.3.5.7.7zm4-32.4h8.3c.1 1.6.2 5.5-.2 11.8-.4 6.8-.2 12.9-.1 15.3l-3.7.1h-4.4c.1-13.7.1-24.1.1-27.2zm-2.5 29.1c2 0 1.5.1 4.5.1h2.4l6.5.1v1.2c-3.2 0-10.1-.1-12.6.1h-.9l.1-1.5zM43.4 232.6c0-.3-.1-.5-.3-.7s-.5-.3-.7-.3c-1.1.1-5.6.2-7.6 0-2.4-.2-6.9-.2-8.8-.2a1 1 0 0 0-1 1c0 .1.4 8.5.4 10.4 0 2 .2 5 .2 5.1 0 .5.4.9.9.9 3.5.3 10.8.4 15.8.1.5 0 .9-.5.9-1 0-2.7 0-7.1.2-8.6.2-1.6 0-6.5 0-6.7zm-2 6.7c-.2 1.4-.2 5.1-.2 7.9-4.2.2-10.4.2-13.7-.1-.1-1-.2-2.8-.2-4.1 0-1.6-.2-7.2-.4-9.5 2.3 0 5.1 0 7.6.2 1.8.1 5.1.1 6.9.1.1 1.4.2 4.3 0 5.5zM140.6 171.2l.1 3.4c0 .5.5 1 1 1l15.4-.1c.5 0 1-.4 1-1l.1-3.2c0-1.3-1.7-1-2.5-1-.1-2.2-.4-8.4-.1-15.3.3-8.8-.1-12.9-.1-13-.1-.5-.5-.9-1-.9h-10.3c-.5 0-1 .5-1 1 0 .1.1 11.9.4 28.2-1.3-.3-3.1-.5-3 .9zm12.9-28.3c.1 1.6.3 5.5.1 11.8-.2 6.8 0 12.9.1 15.3-2-.1-4 .1-5.9.1h-2.2c-.2-13.6-.4-24-.4-27.2h8.3zm-10 29.2c1.9.1 6 0 8.3 0h4.3v1.2l-13.4.1-.1-1.4c.3 0 .5 0 .9.1zM104.2 94.3c0 .5.5 1 1 1l15.6-.1c.6 0 1-.5 1-1l-.2-6.1c-.1-3.1 0-9.6 0-9.6 0-.5-.4-1-1-1-1.2 0-6.4-.1-8.1.1-1.8.1-7 0-7.8 0-.6 0-1.1.5-1 1.1.1.9.3 5.6.3 8.1 0 1.2 0 1.9.2 7.5zm8.5-14.9c1.5-.1 5.2-.1 6.9-.1 0 2-.1 6.3 0 8.8.1 2 .1 3.9.2 5.1l-13.6.1c-.3-6.4-.2-4.8-.2-8.8 0-2.2-.1-4-.2-5 1.7 0 5.1 0 6.9-.1zM485.8 96.5h9.7c.7 0 1-.6 1-1.2 0-1.1-.3-8.2-.3-16.8 0-.5-.4-1-1-1l-9.4-.1c-.6 0-1 .4-1 1v17c0 .7.5 1.1 1 1.1zm1-11.9v-5.1l7.4.1c0 6.8.2 12.7.2 14.9h-7.7c.1-2.1.1-7.2.1-9.9zM405.7 96.3l9.4.2c.5 0 1-.5 1-1V62.4c0-.6-.4-1-1-1h-9.7a1 1 0 0 0-1 1c0 .1.3 14.9.3 32.8.1.6.5 1.1 1 1.1zm8.5-32.9v31l-7.4-.2c0-14.8-.2-27.3-.3-30.9h7.7zM464.8 96.4l9.4.1c.5 0 1-.5 1-1v-17c0-.6-.4-1-1-1h-9.7a1 1 0 0 0-1 1c0 .1.3 7.7.3 16.9 0 .5.4 1 1 1zm8.4-16.9v15l-7.4-.1c0-6.8-.2-12.7-.2-14.9h7.6zM339.4 116h-9.2c-.5 0-1 .5-1 1 0 .1.1 10.7.4 25.8 0 .5.4.9.9 1 4.4.6 5.6.1 9.2.3.7 0 1.1-.6 1-1.2-.1-1-.4-7.2-.2-14.4.3-7.8-.1-11.5-.1-11.7-.1-.4-.5-.8-1-.8zm-7.9 25.9c-.2-12-.3-21-.3-23.9h7.2c.1 1.5.2 5 0 10.5-.2 6 0 11.3.1 13.6-2.8-.1-3.8.2-7-.2zM384.1 96.5h9.7c.6 0 1-.4 1-1V62.4c0-.5-.5-1-1-1l-9.4.2c-.5 0-1 .5-1 1 0 17.9-.3 32.7-.3 32.8 0 .6.5 1.1 1 1.1zm1.3-32.9l7.4-.2v31h-7.7c.1-3.5.3-15.9.3-30.8zM443.2 96.5h9.7c.6 0 1-.4 1-1v-17c0-.6-.5-1-1-1l-9.4.1c-.5 0-1 .5-1 1 0 9.2-.3 16.8-.3 16.9 0 .5.4 1 1 1zm1.3-16.9l7.4-.1v15h-7.7c.1-2.3.3-8.1.3-14.9zM347.8 112.8h9.2c.5 0 .9-.4 1-.9 0-.2.4-3.8.1-11.7-.3-7.7.2-14.4.2-14.5 0-.6-.5-1.1-1.1-1.1h-3.8c-2.2-.1-5.2.3-5.4.3-.5.1-.9.5-.9 1-.3 15.1-.4 25.7-.4 25.8.1.6.6 1.1 1.1 1.1zm1.4-25.9c3.1-.3 4.3-.1 7-.2-.1 2.2-.3 7.6-.1 13.6.2 5.5.1 9 0 10.5h-7.2c0-3 .1-12 .3-23.9zM366.3 131.6c-.3 7.8.1 11.5.1 11.7.1.5.5.9 1 .9h9.2c.5 0 1-.5 1-1 0-.1-.1-10.7-.4-25.8 0-.5-.4-.9-.9-1-.1 0-3.2-.4-5.4-.3h-3.8c-.6 0-1.1.5-1.1 1.1.2-.1.6 6.6.3 14.4zm2.8-13.5c2.6 0 3.4-.2 6.1.1.2 12 .3 21 .3 23.9h-7.2c-.1-1.5-.2-4.9 0-10.5.2-6 0-11.3-.1-13.6.3.1.6.1.9.1zM515.5 87.3h-9.2c-.5 0-.9.4-1 .8 0 .1-.4 2.8-.1 8.4.3 5.5-.2 10.3-.2 10.3-.1.6.4 1.1 1 1.1h4.7c2 0 4.4-.2 4.5-.2.5-.1.9-.5.9-1 .3-10.8.4-18.4.4-18.5.1-.5-.4-.9-1-.9zm-1.3 18.5c-2.8.2-4.4.1-7 .1.1-1.8.3-5.4.1-9.5-.2-3.7-.1-6 0-7.2h7.3c-.1 2.4-.2 8.6-.4 16.6zM483.2 174.7c-.1-2.1-.3-7.5-.1-13.6.3-7.8-.1-11.5-.1-11.7-.1-.5-.5-.9-1-.9h-9.2c-.5 0-1 .5-1 1 0 .1.1 10.5.4 25.1-1.2-.1-2.7-.2-2.6 1.1l.1 3c0 .5.5 1 1 1l13.7-.1c.5 0 1-.4 1-1l.1-2.9c0-1.2-1.5-1-2.3-1zm-2.1-24.1c.1 1.5.2 4.9 0 10.5-.2 6 0 11.3.1 13.6l-5.2.1h-1.9c-.2-12-.3-21.2-.3-24.1h7.3zm2.3 27l-11.8.1v-1.1h.7c1.8.1 5.3 0 7.4 0h3.7v1zM446 179.5c.3.2 1.5.2 2.3.1 1.6-.1 5.3 0 7.3 0h4.8c.5 0 1-.5 1-1-.1-3.8.3-3.8-2.2-3.9.1-1.6.2-5 0-10.6-.3-7.7.2-14.4.2-14.5 0-.6-.5-1.1-1.1-1.1h-3.8c-2.2-.1-5.2.3-5.4.3-.5.1-.9.5-.9 1-.2 12.4-.3 21.7-.4 24.8-2.7 0-2.3-.1-2.4 4 0 .4.3.8.6.9zm4.2-28.7c3.1-.3 4.3-.1 7-.2-.1 2.2-.3 7.6-.1 13.6.2 5.5.1 9 0 10.5h-7.2c0-3 .1-12 .3-23.9zm-2.7 25.8h1c.9.1 4.5 0 5.7.1h5v.9c-2.9 0-8.8-.1-11.2.1h-.7l.2-1.1zM230.1 108.2h17.6c4.3.2 3.7 0 3.5-4.1 0-.5-.5-.9-1-.9h-1.1c.3-8.5.2-6.4.2-11.6.1-4.7.3-7.8.3-7.9 0-.6-.5-1.1-1.1-1.1-1 .1-5.8.2-7.8 0-1.9-.2-6.8-.1-8.2-.1-.5 0-1 .5-1 1 0 .1.1 8.5 0 12.5-.1 3-.2 5.8-.2 7.2-2.7 0-2.3-.1-2.4 3.8.2.7.7 1.2 1.2 1.2zm3.6-12c.1-3.3 0-9.3 0-11.7 1.8-.1 5.4 0 6.9.1 1.7.2 5.2.1 7 .1l-.2 9.6c0 1.8 0 2.6-.2 8.9l-13.6-.1c0-1.4.1-4.1.1-6.9zm-2.5 9.1l16.9-.1h1.2l.1 1.1h-1.5c-2.4-.1-7.8 0-10.8 0h-5.9v-1zM533.1 178.6l.1-2.9c0-1.3-1.7-1-2.6-1 .2-14.7.4-25 .4-25.1 0-.5-.5-1-1-1h-9.2c-.5 0-.9.4-1 .9 0 .2-.4 3.8-.1 11.7.2 6 0 11.4-.1 13.5-1.1 0-2.3 0-2.3 1.1l.1 3c0 .5.5 1 1 1l13.7-.1c.5-.1 1-.6 1-1.1zM521.6 161c-.2-5.5-.1-9 0-10.5h7.2c0 2.9-.1 11.9-.3 23.9-3.1.4-4.3.1-7 .2.1-2.2.3-7.6.1-13.6zm9.5 16.6l-11.8.1v-1.1h.7c2.3.1 8.3 0 11.2.1l-.1.9zM507.7 174.6c0-14.5-.1-25-.1-25.1 0-.5-.5-1-1-1h-9.2c-.5 0-.9.4-1 .9 0 .2-.3 3.8.1 11.7.3 6.1.2 11.5.1 13.6-2.9 0-2.5-.1-2.6 3.9 0 .5.4 1 1 1h8.5l4.6.1c1.1 0 1.9-.2 1.9-1.1-.2-4 .2-4-2.3-4zm-9.3-24h7.2c0 2.9.1 12.1.1 24.1-1.4 0-2.7.1-4.1 0h-2.9c.1-2.2.2-7.6-.1-13.6-.4-5.6-.3-9-.2-10.5zm5.1 27h-7.4v-.9l11.8-.1v1.1l-4.4-.1zM530.4 87.5c-.1 0-3.1-.3-5.3-.2h-3.8c-.6 0-1.1.5-1 1.1 0 0 .4 4.8.2 10.3-.3 5.7.1 8.3.1 8.4.1.5.5.8 1 .8h9.2c.6 0 1-.5 1-1 0-.1-.1-7.7-.4-18.5-.1-.4-.5-.8-1-.9zm-8 18.5c-.1-1.2-.2-3.5 0-7.2.2-4.1 0-7.7-.1-9.5 2.6 0 4.2-.1 7 .1.2 8.1.3 14.2.3 16.6h-7.2zM547.4 87.6c-.5-.5-1.2-.3-2.7-.3h-1.9c-2.2-.1-5.2.2-5.3.2-.5.1-.9.5-.9 1-.3 10.8-.4 18.4-.4 18.5 0 .6.4 1 1 1h9.2c.5 0 .9-.4 1-.8 0-.1.4-2.8.1-8.4-.3-5.5.2-10.3.2-10.3 0-.4-.1-.7-.3-.9zm-1.9 18.4h-7.3c0-2.3.1-8.5.3-16.6 2.8-.2 4.4-.1 7-.1-.1 1.8-.3 5.4-.1 9.5.3 3.7.2 6 .1 7.2zM459.4 211.3c-.1-2.1-.3-7.5-.1-13.6.3-7.8-.1-11.5-.1-11.7-.1-.5-.5-.9-1-.9H449c-.5 0-1 .5-1 1 0 .1.1 10.5.4 25.1-1.2-.1-2.7-.2-2.6 1.1l.1 3c0 .5.5 1 1 1l13.7-.1c.5 0 1-.4 1-1l.1-2.9c0-1.2-1.5-1-2.3-1zm-2.2-24.1c.1 1.5.2 5 0 10.5-.2 6 0 11.3.1 13.6l-5.2.1h-1.9c-.2-12-.3-21.2-.3-24.1h7.3zm2.4 27l-11.8.1v-1.1l6.2.1h5.7l-.1.9zM422.4 174.7c.1-1.6.2-5.1 0-10.6-.3-7.7.2-14.4.2-14.5 0-.6-.5-1.1-1.1-1.1h-3.8c-2.2-.1-5.2.3-5.4.3-.5.1-.9.5-.9 1-.2 12.4-.3 21.7-.4 24.7-1.1 0-2.3 0-2.2 1.1l.1 3c0 .5.5 1 1 1l13.7-.1c.5 0 1-.4 1-1l.1-2.9c.2-1.1-1.4-.9-2.3-.9zm-8.9-23.9c1-.1 2.8-.3 4.1-.2h2.9c-.1 2.2-.3 7.6-.1 13.6.2 5.5.1 9 0 10.5h-7.2c0-2.9.1-12 .3-23.9zm9.3 26.8l-11.8.1v-1.1l2.3.1h9.6l-.1.9zM600 165.2v-.6c-.2-4-3-6.1-5.7-6.1-2.9 0-5.8 2.2-5.8 6.5-.1 7.4 11.2 7.1 11.5.2zm-5.7-4.8c4.6 0 5.5 8-.2 8-5.4.1-4.5-8 .2-8zM246.9 268.3h2c2.5-14.4 17-13.2 19.8 0h2c-3-15.8-21.1-17.1-23.8 0zM37.8 267.4s-2.2 0-5.3-.1c-3.2-.1-11 .3-11 .3-.3 0-.7.2-.8.5 0 0 0 .1-.1.2h18.3c-.2-.5-.6-.9-1.1-.9zM207.3 265.6c.3-4.7.2-9 .1-10.9l6.1-.1v13.7h2v-14.7c0-.5-.4-1-1-1h-8.1c-.6 0-1.1.5-1.1 1.1 0 .1.3 5.5-.1 11.8-.1 1-.1 2-.1 2.8h2c.1-.8.1-1.7.2-2.7zM584.9 192.2c.1.9.3 5.6.3 8.1 0 1.5 0 2.1.3 7.7 0 .5.5 1 1 1l13.5-.1v-2l-12.6.1c-.3-6.4-.2-4.8-.2-8.8 0-2.2-.1-4-.2-5 1.7.1 5.2.1 6.9 0 1.3-.1 4.2-.1 6.1-.1v-2c-2 0-5 0-6.3.1-1.8.1-7 0-7.8 0-.6-.1-1.1.4-1 1zM570.3 267.9l-.1-3.3c0-.5-.5-1-1-1H568c.3-10.2.2-7.7.3-13.8.1-5.5.3-9.1.3-9.2 0-.6-.5-1.1-1.1-1.1-1 .1-5.7.2-7.7 0s-6.8-.2-8.2-.1c-.5 0-1 .5-.9 1 0 .1.1 9.9 0 14.6-.1 3.5-.2 6.8-.2 8.4-2.6 0-2.2-.1-2.4 4.4 0 .2 0 .3.1.4h22.2c-.1 0-.1-.1-.1-.3zm-17.7-12.7c.1-3.9 0-11.1 0-13.7 1.8-.1 5.4-.1 6.9.1 1.7.2 5.2.2 7 .1l-.2 11.3c0 2.1 0 3.1-.2 10.6l-13.6-.1c0-1.7 0-4.9.1-8.3zm9.8 11.8c-3 0-8.4-.1-10.8 0h-1.5l.1-1.6 18.1.1v1.3c-2 .2-4.2.2-5.9.2zM134.7 94.3c0 .5.5 1 1 1l15.6-.1c.6 0 1-.5 1-1l-.2-6.1c-.1-3.1 0-9.6 0-9.6 0-.5-.4-1-1-1-1.2 0-6.4-.1-8.1.1-1.8.1-7 0-7.8 0-.6 0-1.1.5-1 1.1.1.9.3 5.6.3 8.1 0 1.2 0 1.9.2 7.5zm8.5-14.9c1.5-.1 5.2-.1 6.9-.1 0 2-.1 6.3 0 8.8.1 2 .1 3.9.2 5.1l-13.6.1c-.3-6.3-.2-4.8-.2-8.8 0-2.2-.1-4-.2-5 1.7 0 5.1 0 6.9-.1zM585.5 268.3h2.4c.8-1.1 1.5-2.1 2-2.9 4.2 0 7.4-.1 10-.1v-2c-2.3 0-5.1.1-8.6.1l3.9-6h4.7v-2h-4.3c-.1-2.9-.3-11.5-.2-18.8.1-6.5 0-9.8-.2-12.6h4.6v-2h-4l2.8-5.2c.4 0 .8 0 1.2.1v-2h-.2l.2-.3v-4.2c-2 3.7-6.6 12.1-6.6 12.5v.7c-3 .1-7.4-.1-7.4-.1-.6 0-1.1.5-1 1.1.1.9.3 5.6.3 8.1 0 1.5 0 2.1.3 7.7 0 .5.5 1 1 1l7.1-.1c0 6.7.2 13.3.2 14.8-.4.6-1.7 2.5-3.7 5.7-.5.9-2.2 3.3-4.5 6.5zm8.1-31.7v2.7h-6.1c-.3-6.4-.2-4.8-.2-8.8 0-2.2-.1-4-.2-5 1.5 0 4.3.1 6.5 0-.1 2.4 0 6.1 0 11.1zM5.5 107.1c0-.1.4-2.8.1-8.4-.3-5.5.2-10.3.2-10.3.1-.6-.4-1.1-1-1.1H0v2h3.7c-.1 1.8-.3 5.4-.1 9.5.2 3.7.1 6 0 7.2H0v2h4.5c.5 0 1-.4 1-.9zM42.6 111.5c0-.5-.5-1-1-1l-15.2.1a1 1 0 0 0-1 1l.2 5.9c.1 3 0 9.3 0 9.4 0 .5.4 1 1 1 1.2 0 6.2.1 7.9-.1 1.8-.1 6.8 0 7.6 0 .6 0 1.1-.5 1-1.1-.1-.8-.3-5.6-.3-7.9 0-1.3 0-1.9-.2-7.3zm-4.9 14.3c-3.1 0-4.2.2-7.4.2h-2.8c0-1.9.1-6.1 0-8.5-.1-2-.1-3.8-.2-4.9l13.2-.1c.3 6.1.2 4.7.2 8.5 0 2.2.1 3.8.2 4.9-.7 0-1.9-.1-3.2-.1zM596.5 267.6c-.3 0-.7.2-.8.5 0 0 0 .1-.1.2h4.4v-.9l-3.5.2zM43.1 78.4c0-.5-.4-1-1-1-1.2 0-6.4-.1-8.1.1-1.6.1-6.6.1-7.8 0-.6 0-1.1.5-1 1.1.1.9.3 5.6.3 8.1 0 .8 0 1.4.1 2.8 0 3.2-.4 4.7.1 5.2.1.1.2.1.2.2.3.2.4.5.8.5l15.6-.1c.6 0 1-.5 1-1l-.2-6.1c-.1-3.3 0-9.8 0-9.8zm-2.3 8.2c0 1.3 0 1.9-.2 6.5L27.7 93c-.1-2.4-.2-3.1-.1-4.9.1-2.4 0-6.6 0-8.5h3.1c2.9 0 4.2.2 7.1.2 1.3 0 2.5 0 3.3-.1l-.3 6.9zM290 127.3c-4.3-.7-5.8-.2-9.2-.4-.6 0-1.1.5-1.1 1.1 0 .1.5 8.4.2 18-.3 9.7.1 14.2.1 14.4 0 .5.5.9 1 .9h9.2c.5 0 1-.5 1-1 0-.1-.1-13.3-.4-31.9 0-.7-.3-1.1-.8-1.1zm-8 31.9c-.1-1.8-.3-6.1-.1-13.2.2-7.6 0-14.4-.1-17h.9c2.7 0 3.2-.2 6.1.2.2 15.3.3 26.7.3 30.1H282zM262.6 160.3c0-5-3.4-7.6-6.8-7.6-3.3 0-6.7 2.6-6.7 7.6-.1 8.5 13.5 8.8 13.5 0zm-11.6-.1c0-7.6 9.6-7.4 9.6 0 0 1.4-.5 2.6-1.4 3.4-2.8 2.5-8.2.9-8.2-3.4zM0 164.5v0zM600 89.3v-2c-2 0-4.3.2-4.4.2-.5.1-.9.5-.9 1-.3 10.8-.4 18.4-.4 18.5 0 .6.4 1 1 1h4.6v-2h-3.6c0-2.3.1-8.5.3-16.6 1.4-.1 2.4-.1 3.4-.1zM306 127.3c-.1 0-3.2-.5-5.4-.4-.6 0-1.2.1-1.9.1-1.1 0-1.9-.1-1.9-.1-.3 0-.6.1-.8.3-.2.2-.3.5-.3.8 0 .1.4 8.4.2 18-.3 9.7.1 14.2.1 14.4 0 .5.5.9 1 .9h9.2c.3 0 .5-.1.7-.3.2-.2.3-.4.3-.7 0-.1-.1-13.3-.4-31.9 0-.7-.3-1.1-.8-1.1zm-8.1 31.9c-.1-1.8-.3-6.1-.1-13.2.2-7.6 0-14.4-.1-17h.9c.7 0 1.4 0 2-.1 1.4-.1 3.1.1 4.1.2.2 15.3.3 26.7.3 30.1h-7.1z"/>
</svg>