<svg xmlns="http://www.w3.org/2000/svg" width="86" height="86" viewBox="0 0 86 86">
    <g fill="none" fill-rule="evenodd">
        <path d="M0 0h86v86H0z"/>
        <path fill="#CEF3F5" d="M76.762 48.536c0 17.997-12.459 30.37-31.84 30.37H28.39a6.224 6.224 0 0 1-6.223-6.224V24.39a6.224 6.224 0 0 1 6.223-6.224h16.532c19.381 0 31.84 12.286 31.84 30.37"/>
        <path stroke="#1B2629" stroke-width="5" d="M64.596 36.37c0 17.996-12.46 30.369-31.84 30.369H16.223A6.224 6.224 0 0 1 10 60.515V12.224A6.224 6.224 0 0 1 16.224 6h16.531c19.381 0 31.84 12.286 31.84 30.37"/>
    </g>
</svg>
