<svg xmlns="http://www.w3.org/2000/svg" width="86" height="86" viewBox="0 0 86 86">
    <g fill="none" fill-rule="evenodd">
        <path d="M0 0h86v86H0z"/>
        <path fill="#CEF3F5" d="M21.79 15.79h54.283a2 2 0 0 1 2 2v61.555a2 2 0 0 1-3.101 1.67l-5.512-3.636a2 2 0 0 0-2.202 0l-7.512 4.954a2 2 0 0 1-2.202 0l-7.512-4.954a2 2 0 0 0-2.202 0l-7.512 4.954a2 2 0 0 1-2.202 0l-7.511-4.954a2 2 0 0 0-2.203 0l-5.511 3.635a2 2 0 0 1-3.102-1.67V17.79a2 2 0 0 1 2-2z"/>
        <path stroke="#1B2629" stroke-linecap="round" stroke-linejoin="round" stroke-width="5" d="M7 3h58.283v67.27l-9.713-6.407-9.714 6.407-9.714-6.407-9.714 6.407-9.714-6.407L7 70.27zM19.79 22.184h16.19M49.632 22.184h3.238M19.79 34.974h16.19M49.632 34.974h3.238M19.79 47.763h16.19M49.632 47.763h3.238"/>
    </g>
</svg>
