<svg xmlns="http://www.w3.org/2000/svg" width="40" height="40" viewBox="0 0 40 40">
    <g fill="none" fill-rule="evenodd">
        <path d="M0 0h40v40H0z"/>
        <path fill="#CEF3F5" d="M11.5 8.441h23.343a2 2 0 0 1 2 2v26.83a1.47 1.47 0 0 1-2.279 1.226l-1.177-.776a2 2 0 0 0-2.202 0l-2.355 1.553a2 2 0 0 1-2.203 0l-2.354-1.553a2 2 0 0 0-2.203 0l-2.355 1.553a2 2 0 0 1-2.202 0l-2.355-1.553a2 2 0 0 0-2.202 0l-1.177.776A1.47 1.47 0 0 1 9.5 37.27V10.441a2 2 0 0 1 2-2z"/>
        <g stroke="#1B2629" stroke-linecap="round" stroke-linejoin="round" stroke-width="3">
            <path d="M4 3h27.343v31.559l-4.557-3.006-4.557 3.006-4.558-3.006-4.557 3.006-4.557-3.006L4 34.56zM10.076 12.017h7.595M23.748 12.017h1.519M10.076 18.028h7.595M23.748 18.028h1.519M10.076 24.04h7.595M23.748 24.04h1.519"/>
        </g>
    </g>
</svg>
