<svg xmlns="http://www.w3.org/2000/svg" width="26" height="26" viewBox="0 0 26 26">
    <circle cx="13" cy="13" r="13" fill="#09c3cc"/>
    <path fill="#007793" d="M9.1 16.4c-.1-.1-.2-.3-.2-.5v-5.4H7.1c-.4 0-.6-.2-.6-.5 0-.4.2-.5.6-.5H12c.4 0 .6.2.6.5 0 .4-.2.5-.6.5h-1.8v5.4c0 .2-.1.3-.2.5-.1.1-.3.2-.5.2-.1 0-.3-.1-.4-.2zM14.3 16.2c-.5-.3-.9-.7-1.2-1.3-.3-.5-.4-1.2-.4-1.9s.1-1.4.4-1.9c.3-.5.7-1 1.2-1.3.5-.3 1.1-.4 1.8-.4s1.3.1 1.8.4c.5.3.9.7 1.2 1.3.3.5.4 1.2.4 1.9s-.1 1.4-.4 1.9c-.3.5-.7 1-1.2 1.3-.5.3-1.1.4-1.8.4s-1.3-.1-1.8-.4zm3.3-1.3c.4-.4.5-1.1.5-1.9 0-.8-.2-1.5-.5-1.9s-.9-.7-1.5-.7c-.7 0-1.2.2-1.5.7s-.5 1.1-.5 1.9c0 .8.2 1.5.5 1.9.4.4.9.7 1.5.7.7 0 1.2-.2 1.5-.7z"/>
</svg>