<svg xmlns="http://www.w3.org/2000/svg" width="241" height="78" viewBox="0 0 241 78" version="1.1" x="0px" y="0px">
    <defs>
        <path d="M0 78h241V0H0z"/>
    </defs>
    <g fill="none" fill-rule="evenodd">
        <path fill="#09C3CC" d="M19.569 45.615c10.017 0 15.92-5.692 15.92-15.615s-5.903-15.77-15.92-15.77h-6.29v31.385h6.29zM49 30c0 16-11.182 27-28.577 27H0V3h20.423C37.818 3 49 13.923 49 30zM64.13 30.86h16.432c0-4.675-3.685-7.358-8.062-7.358-4.3 0-7.602 2.606-8.37 7.359M72.655 57C60.06 57 51 48.568 51 35s8.907-22 21.654-22C85.169 13 94 21.279 94 34.31c0 1.226-.077 2.53-.23 3.833H64.053c.46 5.596 3.915 8.202 8.139 8.202 3.686 0 5.759-1.84 6.834-4.14h13.975C90.928 50.561 83.327 57 72.654 57M120.117 24.422c-4.998 0-9.528 3.679-9.528 10.501 0 6.823 4.53 10.655 9.528 10.655 5.076 0 9.528-3.756 9.528-10.578 0-6.822-4.452-10.578-9.528-10.578M116.212 13c6.482 0 11.09 2.913 13.433 6.669v-6.056H143v42.774h-13.355V50.33c-2.421 3.756-7.03 6.669-13.511 6.669C105.513 57 97 48.415 97 34.923 97 21.432 105.513 13 116.212 13"/>
        <path fill="#09C3CC" d="M147 57h13V0h-13zM226.68 14H241l-27.093 64h-14.243l9.908-22.085L192 14h14.785l9.986 27.14zM190.327 46.717h-5.056c-2.908 0-3.98-1.09-3.98-3.656V25.63h10.506l-4.577-11.049h-5.929V4h-13.087v10.582H163v11.05h5.204v17.273c0 11.282 6.2 15.095 15.077 15.095H195l-4.673-11.283z" />
    </g>
</svg>