<svg xmlns="http://www.w3.org/2000/svg" width="139" height="139" viewBox="0 0 139 139">
  <g id="Group_71" data-name="Group 71" transform="translate(-1452.102 -3009.577)">
    <g id="Group_70" data-name="Group 70">
      <circle id="Ellipse_4" data-name="Ellipse 4" cx="69.5" cy="69.5" r="69.5" transform="translate(1452.102 3009.577)" fill="#1999a9"/>
      <path id="Path_22" data-name="Path 22" d="M1521.6,3038.68a40.4,40.4,0,1,0,40.4,40.4A40.39,40.39,0,0,0,1521.6,3038.68Zm0,72.975a32.578,32.578,0,1,1,32.578-32.578A32.611,32.611,0,0,1,1521.6,3111.655Zm-13.031-35.184a5.213,5.213,0,1,0-5.213-5.213A5.207,5.207,0,0,0,1508.571,3076.471Zm26.062,0a5.213,5.213,0,1,0-5.213-5.213A5.207,5.207,0,0,0,1534.633,3076.471Zm.652,11.825a17.795,17.795,0,0,1-27.366,0,3.91,3.91,0,0,0-6.011,5,25.642,25.642,0,0,0,39.387,0,3.909,3.909,0,0,0-6.01-5Z" fill="#fff"/>
    </g>
  </g>
</svg>
