<svg xmlns="http://www.w3.org/2000/svg" width="139" height="139" viewBox="0 0 139 139">
  <g id="Group_23" data-name="Group 23" transform="translate(-328.725 -3011.931)">
    <circle id="Ellipse_1" data-name="Ellipse 1" cx="69.5" cy="69.5" r="69.5" transform="translate(328.725 3011.931)" fill="#1999a9"/>
    <path id="Path_19" data-name="Path 19" d="M412.235,3080.263v4.087a1.756,1.756,0,0,1-1.751,1.751H385.965a1.756,1.756,0,0,1-1.751-1.751v-4.087a1.756,1.756,0,0,1,1.751-1.751h24.519A1.756,1.756,0,0,1,412.235,3080.263Zm-1.751,10.508H385.965a1.756,1.756,0,0,0-1.751,1.752v4.086a1.756,1.756,0,0,0,1.751,1.751h24.519a1.756,1.756,0,0,0,1.751-1.751v-4.086A1.756,1.756,0,0,0,410.484,3090.771Zm15.762-27.452v48.468a7.007,7.007,0,0,1-7.005,7.006H377.209a7.008,7.008,0,0,1-7.006-7.006v-60.713a7.007,7.007,0,0,1,7.006-7H407a7,7,0,0,1,4.947,2.058l12.245,12.245A6.978,6.978,0,0,1,426.246,3063.319Zm-18.681-11.675v11.106h11.106Zm11.676,60.143v-42.032H404.062a3.493,3.493,0,0,1-3.5-3.5v-15.179H377.209v60.713Z" fill="#fff"/>
  </g>
</svg>
