<svg xmlns="http://www.w3.org/2000/svg" width="139" height="139" viewBox="0 0 139 139">
  <g id="Group_69" data-name="Group 69" transform="translate(-1080.9 -3011.931)">
    <circle id="Ellipse_3" data-name="Ellipse 3" cx="69.5" cy="69.5" r="69.5" transform="translate(1080.9 3011.931)" fill="#1999a9"/>
    <g id="Group_25" data-name="Group 25">
      <path id="Path_21" data-name="Path 21" d="M1153.8,3064.306V3045h-28.391a3.4,3.4,0,0,0-3.407,3.407v65.866a3.4,3.4,0,0,0,3.407,3.407h47.7a3.4,3.4,0,0,0,3.407-3.407v-46.56H1157.2A3.417,3.417,0,0,1,1153.8,3064.306Zm9.252,30.663H1153.8v11.356a2.272,2.272,0,0,1-2.272,2.272h-4.542a2.271,2.271,0,0,1-2.271-2.272v-11.356h-9.253a2.272,2.272,0,0,1-1.6-3.884l13.687-13.585a2.421,2.421,0,0,1,3.413,0l13.687,13.585A2.27,2.27,0,0,1,1163.05,3094.969Zm12.467-35.064-13.9-13.911a3.4,3.4,0,0,0-2.413-.994h-.866v18.17h18.17v-.866A3.4,3.4,0,0,0,1175.517,3059.905Z" fill="#fff"/>
    </g>
  </g>
</svg>
