<svg xmlns="http://www.w3.org/2000/svg" width="139" height="139" viewBox="0 0 139 139">
  <g id="Group_24" data-name="Group 24" transform="translate(-706.452 -3011.931)">
    <circle id="Ellipse_2" data-name="Ellipse 2" cx="69.5" cy="69.5" r="69.5" transform="translate(706.452 3011.931)" fill="#1999a9"/>
    <path id="Path_20" data-name="Path 20" d="M772.9,3078.537a18.8,18.8,0,1,0-18.8-18.8A18.8,18.8,0,0,0,772.9,3078.537Zm13.16,4.7h-2.453a25.568,25.568,0,0,1-21.414,0H759.74a19.745,19.745,0,0,0-19.74,19.74v6.11a7.052,7.052,0,0,0,7.05,7.05h51.7a7.052,7.052,0,0,0,7.05-7.05v-6.11A19.745,19.745,0,0,0,786.06,3083.237Zm47.441-18.859-4.084-4.127a1.742,1.742,0,0,0-2.467-.015l-15.393,15.275-6.682-6.726a1.742,1.742,0,0,0-2.468-.015l-4.127,4.1a1.742,1.742,0,0,0-.015,2.467l12,12.088a1.742,1.742,0,0,0,2.467.015l20.754-20.592A1.756,1.756,0,0,0,833.5,3064.378Z" fill="#fff"/>
  </g>
</svg>
