<svg xmlns='http://www.w3.org/2000/svg' viewBox='0 0 14.999 15'>
  <path id='Path_30' data-name='Path 30' d="M1004.185,539.121l-1.16-1.16a.7.7,0,0,0-.993,0l-7.015,
    7.016-3.264-3.266a.7.7,0,0,0-.993,0l-1.163,1.162a.7.7,0,0,0,0,1l4.922,4.924a.7.7,0,0,0,.993,
    0l8.67-8.676a.705.705,0,0,0,0-1Zm-9.5,3.105a.464.464,0,0,0,.662,0l6.092-6.1a.47.47,0,0,0,
    0-.662l-1.324-1.327a.466.466,0,0,0-.662,0l-4.437,4.438-1.623-1.626a.466.466,0,0,0-.662,0l-1.327,
    1.327a.47.47,0,0,0,0,.662l3.281,3.287Z" transform="translate(-989.391 -534)" fill="lime" />
</svg>