<svg xmlns='http://www.w3.org/2000/svg' viewBox='0 0 65.383 58.127'>
  <path id='Path_1' data-name='Path 1' d="M524.284,210.45l3.633-3.632a.912.912,0,0,1,1.555.647V223.97a5.45,
    5.45,0,0,1-5.449,5.448H484.066a5.45,5.45,0,0,1-5.449-5.448V184.013a5.451,5.451,0,0,
    1,5.449-5.449h31.046a.914.914,0,0,1,.647,1.555l-3.632,3.633a.9.9,0,0,
    1-.647.261H484.066V223.97h39.957V211.086A.893.893,0,0,1,524.284,210.45Zm17.776-22.907-29.808,29.809-10.262,
    1.135a4.69,4.69,0,0,1-5.176-5.176l1.135-10.262,29.809-29.809a6.625,6.625,0,0,1,9.387,0l4.9,4.9a6.65,6.65,0,0,
    1,.011,9.4Zm-11.215,3.508-6.595-6.6-21.091,21.1-.828,7.412,7.412-.829ZM538.2,182l-4.9-4.9a1.184,1.184,0,0,
    0-1.68,0l-3.508,3.507,6.6,6.6,3.507-3.508A1.209,1.209,0,0,0,538.2,182Z" transform="translate(-478.617 -171.291)"
    fill="#1999A9" />
</svg>