<svg width="88" height="100" viewBox="0 0 88 100" fill="none" xmlns="http://www.w3.org/2000/svg">
<path d="M78.125 0H9.375C4.375 0 0 4.375 0 9.375V90.625C0 95.625 4.375 100 9.375 100H78.125C83.125 100 87.5 95.625 87.5 90.625V9.375C87.5 4.375 83.125 0 78.125 0ZM25 85C25 86.25 23.75 87.5 22.5 87.5H15C13.75 87.5 12.5 86.25 12.5 85V77.5C12.5 76.25 13.75 75 15 75H22.5C23.75 75 25 76.25 25 77.5V85ZM25 60C25 61.25 23.75 62.5 22.5 62.5H15C13.75 62.5 12.5 61.25 12.5 60V52.5C12.5 51.25 13.75 50 15 50H22.5C23.75 50 25 51.25 25 52.5V60ZM50 85C50 86.25 48.75 87.5 47.5 87.5H40C38.75 87.5 37.5 86.25 37.5 85V77.5C37.5 76.25 38.75 75 40 75H47.5C48.75 75 50 76.25 50 77.5V85ZM50 60C50 61.25 48.75 62.5 47.5 62.5H40C38.75 62.5 37.5 61.25 37.5 60V52.5C37.5 51.25 38.75 50 40 50H47.5C48.75 50 50 51.25 50 52.5V60ZM75 85C75 86.25 73.75 87.5 72.5 87.5H65C63.75 87.5 62.5 86.25 62.5 85V52.5C62.5 51.25 63.75 50 65 50H72.5C73.75 50 75 51.25 75 52.5V85ZM75 35C75 36.25 73.75 37.5 72.5 37.5H15C13.75 37.5 12.5 36.25 12.5 35V15C12.5 13.75 13.75 12.5 15 12.5H72.5C73.75 12.5 75 13.75 75 15V35Z" fill="#1999A9"/>
</svg>
