<svg width="129" height="100" viewBox="0 0 129 100" fill="none" xmlns="http://www.w3.org/2000/svg">
<path d="M62.5929 25.9426L21.4343 59.8415V96.4282C21.4343 97.3755 21.8106 98.284 22.4805 98.9538C23.1503 99.6237 24.0588 100 25.0061 100L50.0223 99.9353C50.9665 99.9305 51.8705 99.5521 52.5364 98.8828C53.2024 98.2135 53.5763 97.3077 53.5763 96.3634V74.9972C53.5763 74.0499 53.9526 73.1414 54.6224 72.4715C55.2923 71.8017 56.2008 71.4254 57.1481 71.4254H71.4354C72.3827 71.4254 73.2912 71.8017 73.9611 72.4715C74.6309 73.1414 75.0072 74.0499 75.0072 74.9972V96.3478C75.0058 96.8178 75.0971 97.2835 75.2759 97.7181C75.4548 98.1528 75.7176 98.5478 76.0495 98.8807C76.3813 99.2135 76.7755 99.4776 77.2096 99.6578C77.6437 99.838 78.1091 99.9308 78.5791 99.9308L103.586 100C104.534 100 105.442 99.6237 106.112 98.9538C106.782 98.284 107.158 97.3755 107.158 96.4282V59.8169L66.0085 25.9426C65.5247 25.5527 64.9221 25.34 64.3007 25.34C63.6793 25.34 63.0767 25.5527 62.5929 25.9426ZM127.607 48.9831L108.944 33.5997V2.67887C108.944 1.96839 108.662 1.28701 108.159 0.784624C107.657 0.282238 106.976 0 106.265 0H93.7638C93.0533 0 92.3719 0.282238 91.8696 0.784624C91.3672 1.28701 91.0849 1.96839 91.0849 2.67887V18.8883L71.0983 2.44447C69.1803 0.866122 66.7735 0.00315514 64.2895 0.00315514C61.8056 0.00315514 59.3988 0.866122 57.4807 2.44447L0.972204 48.9831C0.70094 49.2074 0.476513 49.4828 0.311744 49.7938C0.146976 50.1048 0.045096 50.4452 0.0119258 50.7955C-0.0212445 51.1459 0.0149451 51.4993 0.118427 51.8357C0.221908 52.1721 0.390654 52.4848 0.615021 52.7559L6.30762 59.6763C6.53138 59.9484 6.8066 60.1737 7.11753 60.3392C7.42846 60.5048 7.76899 60.6074 8.11963 60.6412C8.47028 60.675 8.82414 60.6393 9.16097 60.5362C9.49781 60.4331 9.81099 60.2645 10.0826 60.0402L62.5929 16.7898C63.0767 16.3999 63.6793 16.1872 64.3007 16.1872C64.9221 16.1872 65.5247 16.3999 66.0085 16.7898L118.521 60.0402C118.792 60.2646 119.105 60.4333 119.441 60.5368C119.778 60.6403 120.131 60.6765 120.481 60.6433C120.832 60.6101 121.172 60.5082 121.483 60.3435C121.794 60.1787 122.07 59.9543 122.294 59.683L127.986 52.7626C128.21 52.4899 128.379 52.1756 128.481 51.8377C128.583 51.4999 128.618 51.1452 128.582 50.794C128.547 50.4428 128.443 50.102 128.275 49.7912C128.108 49.4804 127.881 49.2058 127.607 48.9831Z" fill="#1999A9"/>
</svg>
