<svg width="143" height="100" viewBox="0 0 143 100" fill="none" xmlns="http://www.w3.org/2000/svg">
<path d="M42.8571 50C56.6741 50 67.8571 38.817 67.8571 25C67.8571 11.183 56.6741 0 42.8571 0C29.0402 0 17.8571 11.183 17.8571 25C17.8571 38.817 29.0402 50 42.8571 50ZM60 57.1429H58.1473C53.5045 59.375 48.3482 60.7143 42.8571 60.7143C37.3661 60.7143 32.2321 59.375 27.567 57.1429H25.7143C11.5179 57.1429 0 68.6607 0 82.8571V89.2857C0 95.2009 4.79911 100 10.7143 100H75C80.9152 100 85.7143 95.2009 85.7143 89.2857V82.8571C85.7143 68.6607 74.1964 57.1429 60 57.1429ZM107.143 50C118.973 50 128.571 40.4018 128.571 28.5714C128.571 16.7411 118.973 7.14286 107.143 7.14286C95.3125 7.14286 85.7143 16.7411 85.7143 28.5714C85.7143 40.4018 95.3125 50 107.143 50ZM117.857 57.1429H117.009C113.906 58.2143 110.625 58.9286 107.143 58.9286C103.661 58.9286 100.379 58.2143 97.2768 57.1429H96.4286C91.875 57.1429 87.6786 58.4598 83.9955 60.5804C89.442 66.4509 92.8571 74.2411 92.8571 82.8571V91.4286C92.8571 91.9196 92.7455 92.3884 92.7232 92.8571H132.143C138.058 92.8571 142.857 88.058 142.857 82.1429C142.857 68.3259 131.674 57.1429 117.857 57.1429Z" fill="#1797A6"/>
</svg>
