<svg width="100" height="100" viewBox="0 0 100 100" fill="none" xmlns="http://www.w3.org/2000/svg">
<path d="M50 56.25C65.5273 56.25 78.125 43.6523 78.125 28.125C78.125 12.5977 65.5273 0 50 0C34.4727 0 21.875 12.5977 21.875 28.125C21.875 43.6523 34.4727 56.25 50 56.25ZM75 62.5H64.2383C59.9023 64.4922 55.0781 65.625 50 65.625C44.9219 65.625 40.1172 64.4922 35.7617 62.5H25C11.1914 62.5 0 73.6914 0 87.5V90.625C0 95.8008 4.19922 100 9.375 100H90.625C95.8008 100 100 95.8008 100 90.625V87.5C100 73.6914 88.8086 62.5 75 62.5Z" fill="#1999A9"/>
</svg>
