<?xml version="1.0" standalone="no"?>
<!DOCTYPE svg PUBLIC "-//W3C//DTD SVG 20010904//EN"
 "http://www.w3.org/TR/2001/REC-SVG-20010904/DTD/svg10.dtd">
<svg version="1.0" xmlns="http://www.w3.org/2000/svg"
 width="360.000000pt" height="360.000000pt" viewBox="0 0 360.000000 360.000000"
 preserveAspectRatio="xMidYMid meet">
<metadata>
Created by potrace 1.11, written by Peter Selinger 2001-2013
</metadata>
<g transform="translate(0.000000,360.000000) scale(0.100000,-0.100000)"
fill="#000000" stroke="none">
<path d="M473 3556 c-103 -33 -185 -106 -232 -205 l-26 -56 0 -1495 0 -1495
29 -62 c35 -76 104 -144 184 -181 l57 -27 615 0 c338 0 651 4 695 8 129 13
321 55 450 98 365 122 662 345 860 644 82 125 177 323 199 420 2 6 10 35 19
65 9 30 23 91 31 135 8 44 18 96 21 115 11 60 14 451 4 520 -5 36 -11 79 -14
95 -31 226 -135 494 -269 694 -253 375 -653 621 -1149 706 -45 7 -98 17 -117
21 -19 4 -323 8 -675 10 -514 3 -648 1 -682 -10z"/>
</g>
</svg>
