<svg xmlns="http://www.w3.org/2000/svg" width="47.151" height="41.268" viewBox="0 0 47.151 41.268">
  <path id="Path_1" data-name="Path 1" d="M923.85,1477.219c-5.323-4.476-13.547-3.8-18.639,1.381-5.093-5.185-13.316-5.866-18.639-1.381a13.931,13.931,0,0,0-.976,20.37l16.152,16.457a4.837,4.837,0,0,0,6.925.009l16.153-16.457A13.944,13.944,0,0,0,923.85,1477.219Zm-2.173,17.267-16.153,16.456a.378.378,0,0,1-.626,0l-16.153-16.456a9.5,9.5,0,0,1,.672-13.878,9.337,9.337,0,0,1,12.571.967l3.223,3.287,3.223-3.287A9.33,9.33,0,0,1,921,1480.6a9.539,9.539,0,0,1,.673,13.888Z" transform="translate(-881.635 -1474.242)" fill="#ff5656"/>
</svg>
